<?xml version="1.0" encoding="UTF-8"?>
<svg version="1.1" xmlns="http://www.w3.org/2000/svg" width="360" height="360">
<path d="M0 0 C4.16995009 3.70867242 8.18997074 7.54710541 12.0859375 11.54296875 C12.71628906 12.12820312 13.34664063 12.7134375 13.99609375 13.31640625 C35.53136313 33.75022446 48.71167082 62.65811584 54.0859375 91.54296875 C54.42238281 93.26193359 54.42238281 93.26193359 54.765625 95.015625 C61.29024671 134.65493633 51.16329699 174.73222032 28.90234375 207.78515625 C23.49729456 215.20385121 17.4073089 221.90978083 11.0859375 228.54296875 C10.08626953 229.62191406 10.08626953 229.62191406 9.06640625 230.72265625 C-13.46802929 254.34823288 -46.02272571 268.12369354 -77.9140625 272.54296875 C-79.33525391 272.74019531 -79.33525391 272.74019531 -80.78515625 272.94140625 C-120.90068385 277.45974574 -161.39103512 265.51802067 -193.22607422 240.89941406 C-225.62451165 214.86445335 -246.08631222 178.06434848 -251.2265625 136.85546875 C-255.50269725 97.09163085 -244.66582715 56.52170411 -219.79296875 25.0625 C-216.00403749 20.3885264 -212.07510086 15.88976775 -207.9140625 11.54296875 C-207.1715625 10.73730469 -206.4290625 9.93164062 -205.6640625 9.1015625 C-152.65389477 -46.61142628 -57.92611377 -48.84118708 0 0 Z M-189.9140625 21.54296875 C-190.78546875 22.331875 -191.656875 23.12078125 -192.5546875 23.93359375 C-216.65049016 46.81702898 -231.09924408 80.4547933 -232.1171875 113.56640625 C-232.57702407 145.04910269 -224.61925752 175.43367342 -204.9140625 200.54296875 C-204.49543945 201.07825195 -204.07681641 201.61353516 -203.64550781 202.16503906 C-181.34157877 230.38802414 -149.59054254 248.31552486 -113.93359375 253.0390625 C-79.12223773 256.94063176 -42.99657116 247.5990124 -15.37109375 225.80859375 C-12.12269366 223.15691523 -9.00127361 220.37952672 -5.9140625 217.54296875 C-4.60695313 216.35960937 -4.60695313 216.35960937 -3.2734375 215.15234375 C13.5917242 199.13574364 25.5167799 177.72352667 31.8359375 155.48046875 C32.03469482 154.7853418 32.23345215 154.09021484 32.43823242 153.37402344 C41.61598572 119.27510976 36.06615103 82.56550887 18.8046875 52.0390625 C0.59582774 21.26213106 -28.37926838 -1.12635192 -62.9140625 -10.45703125 C-67.54602663 -11.64008702 -72.20427598 -12.63562557 -76.9140625 -13.45703125 C-77.92339844 -13.64136719 -78.93273437 -13.82570313 -79.97265625 -14.015625 C-120.74290207 -18.58156928 -159.75777855 -6.16490243 -189.9140625 21.54296875 Z " fill="#000000" transform="translate(277.9140625,60.45703125)"/>
<path d="M0 0 C6.14568656 7.19495012 6.14278958 16.92712908 6.4375 26 C6.49679688 27.11117187 6.55609375 28.22234375 6.6171875 29.3671875 C6.95610841 38.36977421 6.3109961 46.03767637 0.46484375 53.21875 C-3.50278399 57.36904936 -8.04053793 60.4458354 -12.875 63.5 C-13.70193359 64.03625 -14.52886719 64.5725 -15.38085938 65.125 C-17.39302305 66.42767244 -19.41155874 67.71890424 -21.4375 69 C-17.67333373 91.98122562 -8.84196641 110.41995061 7.5625 127 C8.17867188 127.67675781 8.79484375 128.35351562 9.4296875 129.05078125 C14.10476324 134.09494192 19.67904408 137.4997161 25.5625 141 C26.11188232 140.64695801 26.66126465 140.29391602 27.22729492 139.93017578 C29.73207488 138.3240533 32.24097429 136.72448101 34.75 135.125 C35.61431641 134.56941406 36.47863281 134.01382813 37.36914062 133.44140625 C38.21025391 132.90644531 39.05136719 132.37148437 39.91796875 131.8203125 C40.68778076 131.32805176 41.45759277 130.83579102 42.25073242 130.32861328 C48.64810092 126.65193366 54.28972246 126.17234735 61.5625 127 C65.81669615 128.20049919 69.61881513 130.0189862 73.5625 132 C74.25666016 132.33773437 74.95082031 132.67546875 75.66601562 133.0234375 C77.95482064 134.14108774 80.22899134 135.2841529 82.5 136.4375 C83.58317505 136.97588501 83.58317505 136.97588501 84.68823242 137.52514648 C90.14865881 140.38968476 93.810581 143.496162 96.62890625 149.1328125 C99.18115707 159.3820087 93.47049488 169.32473306 88.53515625 178.07421875 C83.79816311 185.0999769 77.70040956 188.74350342 69.4921875 190.5625 C44.15370805 194.3463796 16.80594321 181.55155375 -3.2980957 166.99316406 C-33.78011346 144.15002382 -52.64683115 111.45470609 -58.4375 74 C-61.3536803 52.75996259 -61.20219719 25.78716861 -47.9375 7.9375 C-42.68021509 1.73979559 -37.32188017 -1.94650624 -29.25 -3.6875 C-19.30772399 -4.50244066 -8.87229785 -5.1620642 0 0 Z " fill="#000000" transform="translate(146.4375,93)"/>
<path d="M0 0 C19.14107096 4.77870359 36.88975467 20.15357756 46.84765625 36.7109375 C54.01108473 49.47458867 58.96970675 62.50823577 59.16015625 77.2109375 C59.20366211 78.33048828 59.20366211 78.33048828 59.24804688 79.47265625 C59.29340003 83.41489194 59.13168507 85.2658614 56.953125 88.6796875 C54.23032703 91.30650558 53.35070584 91.66347999 49.53515625 92.0234375 C45.27229514 91.66217808 43.82773571 90.69101696 40.84765625 87.7109375 C39.7602301 85.53608521 39.53609713 83.93318748 39.234375 81.52734375 C37.44152023 67.75583905 37.44152023 67.75583905 32.84765625 54.7109375 C32.450625 53.82664063 32.05359375 52.94234375 31.64453125 52.03125 C23.50863145 35.52566018 9.85495674 26.85346172 -6.28125 19.2890625 C-9.15234375 17.7109375 -9.15234375 17.7109375 -11.15234375 14.7109375 C-11.67088329 10.19223581 -11.84595263 7.03058178 -9.21484375 3.2109375 C-6.0207713 0.60353142 -4.1404175 -0.29031308 0 0 Z " fill="#000000" transform="translate(211.15234375,97.2890625)"/>
<path d="M0 0 C10.52514155 5.47454823 18.01216248 13.20517062 22.79296875 24.09765625 C25.04028067 31.31230245 26.36859317 37.61344025 24.79296875 45.09765625 C22.73102176 48.12614089 21.26035954 49.74675845 17.63671875 50.61328125 C13.42099549 50.92243429 11.36508525 50.52052497 7.91796875 47.97265625 C4.9299705 43.71425058 4.53791785 38.45879703 3.59375 33.453125 C2.2032125 27.62643372 -0.36541539 24.50825563 -5.14453125 20.84765625 C-8.18488804 19.05667068 -8.18488804 19.05667068 -11.39453125 17.59765625 C-14.4236858 15.98210716 -15.71054477 15.17376734 -17.20703125 12.09765625 C-17.73473469 7.34832526 -17.90907866 5.23545723 -15.39453125 1.16015625 C-10.84832785 -3.1262641 -5.41383461 -2.21344388 0 0 Z " fill="#000000" transform="translate(203.20703125,138.90234375)"/>
</svg>
