<?xml version="1.0" encoding="UTF-8"?>
<svg version="1.1" xmlns="http://www.w3.org/2000/svg" width="512" height="512">
<path d="M0 0 C0.65880661 0.00141495 1.31761322 0.0028299 1.99638367 0.00428772 C4.08487637 0.00985125 6.17325886 0.02239678 8.26171875 0.03515625 C9.68424324 0.04017597 11.10676941 0.04473805 12.52929688 0.04882812 C16.00263952 0.05980868 19.47591836 0.0770479 22.94921875 0.09765625 C22.95508499 0.73943817 22.96095123 1.38122009 22.96699524 2.04244995 C23.03123493 8.75937598 23.11573177 15.47583637 23.21166992 22.19238281 C23.24479794 24.69459876 23.27286708 27.19688726 23.2956543 29.69921875 C23.32942327 33.30890644 23.38175149 36.91793649 23.4375 40.52734375 C23.44388992 41.6350412 23.45027985 42.74273865 23.4568634 43.88400269 C23.67775822 55.71701959 26.4761647 65.48075655 34.8828125 74.07421875 C41.74731506 79.99406499 51.57600148 84.06629294 60.79296875 83.48046875 C72.77451556 81.35331008 81.75964643 77.08317336 88.94921875 67.09765625 C100.80862028 46.42383467 94.46586231 26.68226056 94.94921875 0.09765625 C142.46921875 0.09765625 189.98921875 0.09765625 238.94921875 0.09765625 C239.27921875 18.24765625 239.60921875 36.39765625 239.94921875 55.09765625 C243.98094757 66.18491051 247.4690199 73.54202758 258.01171875 79.09765625 C268.76293852 83.80027633 277.65291528 84.09518842 288.76171875 80.41796875 C296.95707576 77.02332332 303.12260074 71.11036246 306.94921875 63.09765625 C309.8195739 55.5506151 310.41465327 48.55074624 310.4609375 40.52734375 C310.4788887 39.36510284 310.4968399 38.20286194 310.51533508 37.00540161 C310.5691058 33.32785569 310.60322743 29.65043706 310.63671875 25.97265625 C310.6699211 23.46482616 310.70441342 20.9570128 310.74023438 18.44921875 C310.82481303 12.33214551 310.89330234 6.21505509 310.94921875 0.09765625 C315.00179628 -0.00269329 319.05387354 -0.07449345 323.10742188 -0.12207031 C324.48059719 -0.14194353 325.85369071 -0.16905233 327.2265625 -0.20410156 C340.02978938 -0.52231042 351.32625211 1.09617288 360.94921875 10.09765625 C368.66764175 17.48974887 373.5387595 25.82827263 374.07801992 36.69256979 C374.07980849 37.62587274 374.08159706 38.55917568 374.08343983 39.52076054 C374.08789767 40.60316802 374.09235551 41.68557551 374.09694844 42.80078322 C374.0966719 44.57594971 374.0966719 44.57594971 374.09638977 46.38697815 C374.10006646 47.64868472 374.10374315 48.91039128 374.10753125 50.21033138 C374.11752917 53.71035676 374.12126448 57.21036498 374.12392056 60.71040261 C374.12783018 64.48631969 374.13740805 68.26222327 374.14613342 72.03813171 C374.16587926 81.1559441 374.17596165 90.27375756 374.18486121 99.39158598 C374.18924719 103.68812549 374.1946132 107.98466377 374.19985008 112.28120232 C374.21686047 126.56863556 374.23135391 140.85606805 374.23859882 155.14350986 C374.24050863 158.84966088 374.24242898 162.5558119 374.24438477 166.26196289 C374.24486851 167.18307824 374.24535225 168.10419358 374.24585065 169.05322152 C374.25414825 183.96957835 374.27948146 198.88585492 374.31196544 213.80217672 C374.34506272 229.12536272 374.36304999 244.44850796 374.36624306 259.77172989 C374.36840569 268.3715325 374.37711804 276.97121807 374.40270424 285.57098579 C374.42444772 292.89597648 374.43244377 300.22082168 374.42273746 307.54584099 C374.41820328 311.28004249 374.42002704 315.01394404 374.4394989 318.7481041 C374.46047224 322.80542824 374.45011164 326.86209184 374.43696594 330.91944885 C374.45341981 332.67119277 374.45341981 332.67119277 374.47020608 334.45832545 C374.37213094 347.03831713 370.86240498 356.9798514 362.1015625 366 C354.89682899 372.77502773 346.85910179 376.21525403 336.99043941 376.23187733 C335.76310367 376.23633517 334.53576792 376.24079301 333.27124017 376.24538594 C331.90714005 376.24529665 330.54303992 376.2451068 329.17893982 376.24482727 C327.73139649 376.24812691 326.28385407 376.25185269 324.83631283 376.25596875 C320.8532316 376.26598556 316.87016544 376.26970503 312.8870734 376.27235806 C308.59308982 376.27626209 304.29911817 376.28584039 300.00514221 376.29457092 C289.63217836 376.3143331 279.25921354 376.32440147 268.88623556 376.33329871 C264.0008121 376.33768223 259.11538972 376.3430489 254.22996712 376.34828758 C237.98842182 376.36530002 221.7468772 376.37979386 205.50532436 376.38703632 C201.29057756 376.3889462 197.07583077 376.39086654 192.86108398 376.39282227 C191.28976052 376.39354788 191.28976052 376.39354788 189.68669314 376.39428815 C172.71971294 376.40258721 155.75280326 376.42792199 138.78585386 376.46040294 C121.36427151 376.49348216 103.94272499 376.51148589 86.52111107 376.51468056 C76.74034729 376.51684492 66.95968634 376.52558261 57.17895317 376.55114174 C48.84857274 376.57286054 40.51832013 376.58089336 32.1879146 376.57117496 C27.9394401 376.56663361 23.69122924 376.56850674 19.44279099 376.5879364 C15.54831819 376.60559298 11.6543009 376.60455042 7.75982309 376.58903911 C6.35598217 376.58666679 4.95210949 376.59096704 3.54831701 376.60286776 C-9.00923053 376.70267332 -19.26568141 374.3981061 -28.67578125 365.66015625 C-36.05369879 357.69977154 -40.16753502 349.66514718 -40.18220901 338.67175865 C-40.18605016 337.58873447 -40.1898913 336.50571028 -40.19384885 335.38986719 C-40.19298237 334.20574074 -40.19211588 333.02161429 -40.19122314 331.80160522 C-40.19419427 330.53919309 -40.19716539 329.27678096 -40.20022655 327.97611392 C-40.20828396 324.47415545 -40.21008542 320.97221749 -40.21082401 317.47025084 C-40.21267679 313.69230969 -40.2202253 309.91437912 -40.22695923 306.13644409 C-40.24053461 297.87593592 -40.24656616 289.61543261 -40.25096989 281.35491514 C-40.25373392 276.1949996 -40.25797159 271.03508594 -40.26247406 265.87517166 C-40.27466619 251.58344579 -40.28496529 237.29172142 -40.28834915 222.99999046 C-40.28856872 222.08547376 -40.28878828 221.17095706 -40.2890145 220.22872774 C-40.28934192 218.85370275 -40.28934192 218.85370275 -40.28967595 217.45089948 C-40.29011941 215.59340564 -40.29056598 213.73591181 -40.29101562 211.87841797 C-40.29123705 210.95704031 -40.29145848 210.03566265 -40.29168662 209.08636446 C-40.29563309 194.16288139 -40.31308274 179.23944719 -40.33637515 164.31598298 C-40.36010671 148.98715141 -40.37255184 133.65834435 -40.37371707 118.32949412 C-40.37463287 109.72583455 -40.38036111 101.12223865 -40.39853668 92.51859665 C-40.41396211 85.19103108 -40.41904379 77.86354886 -40.41079858 70.53597014 C-40.40690057 66.79991823 -40.40777989 63.06403404 -40.42185593 59.32800293 C-40.43700309 55.27041814 -40.42870319 51.21320875 -40.41827393 47.15560913 C-40.42633033 45.98486701 -40.43438673 44.8141249 -40.44268727 43.60790575 C-40.3689539 31.31494546 -37.57540249 20.43785514 -29.26953125 11.09375 C-21.02785952 3.27429505 -11.18879008 -0.04761187 0 0 Z M-5.05078125 101.09765625 C-5.09203125 140.65640625 -5.13328125 180.21515625 -5.17578125 220.97265625 C-5.19398926 233.48413574 -5.21219727 245.99561523 -5.23095703 258.88623047 C-5.23764404 270.05763189 -5.23764404 270.05763189 -5.2416687 281.22903442 C-5.2435393 286.22229778 -5.25106308 291.21551902 -5.26193237 296.20877075 C-5.27559007 302.56662784 -5.27977484 308.92442316 -5.2769258 315.28229356 C-5.27752207 317.62271477 -5.28152353 319.96313801 -5.28921151 322.30354667 C-5.29907513 325.45105045 -5.29679235 328.59831038 -5.29129028 331.74581909 C-5.29711561 332.673557 -5.30294094 333.6012949 -5.30894279 334.55714607 C-5.30496105 335.39740711 -5.30097931 336.23766815 -5.29687691 337.10339165 C-5.29763635 337.83169524 -5.29839579 338.55999883 -5.29917824 339.31037223 C-5.19854705 341.35191502 -5.19854705 341.35191502 -3.05078125 343.09765625 C-0.51316571 343.40174615 -0.51316571 343.40174615 2.49963379 343.34933853 C3.68673698 343.35455403 4.87384018 343.35976952 6.0969162 343.36514306 C8.07051495 343.3584509 8.07051495 343.3584509 10.08398438 343.35162354 C11.48671887 343.35392596 12.88945217 343.35710101 14.29218292 343.36107802 C18.16037062 343.36946472 22.02846025 343.36528329 25.89664841 343.35910559 C30.06302318 343.35459786 34.22938058 343.36155648 38.39575195 343.36706543 C46.56303435 343.3759791 54.73028008 343.37402866 62.89756393 343.36824015 C69.5327052 343.3637314 76.16783616 343.36310733 82.80297852 343.36528778 C83.74575291 343.36559425 84.68852731 343.36590071 85.65987062 343.36621647 C87.5748361 343.36685589 89.48980157 343.36750431 91.40476704 343.36816165 C109.37989548 343.37387072 127.35500356 343.36729801 145.33012867 343.35656092 C160.76827307 343.34762488 176.20638739 343.34917676 191.64453125 343.35839844 C209.55341843 343.36909089 227.46228774 343.37332135 245.37117767 343.36717391 C247.27927144 343.36653678 249.18736521 343.36590804 251.09545898 343.36528778 C252.03438508 343.36497923 252.97331117 343.36467068 253.94068956 343.36435278 C260.57122252 343.36262276 267.20174418 343.36554754 273.83227539 343.37024689 C281.90785519 343.37584435 289.98339609 343.37436327 298.05897141 343.3636854 C302.18269747 343.35841333 306.30635858 343.35639789 310.43008423 343.3629837 C314.20008302 343.36891373 317.96995622 343.36571725 321.7399435 343.3550286 C323.76046953 343.35171214 325.78100417 343.3582918 327.8015213 343.36514306 C329.58217609 343.35731982 329.58217609 343.35731982 331.39880371 343.34933853 C332.42979942 343.34901383 333.46079514 343.34868912 334.52303314 343.34835458 C337.13067551 343.336655 337.13067551 343.336655 338.94921875 341.09765625 C339.24856378 339.2467873 339.24856378 339.2467873 339.19531441 337.10339165 C339.19929615 336.26313061 339.20327789 335.42286957 339.20738029 334.55714607 C339.20155497 333.62940817 339.19572964 332.70167027 339.18972778 331.74581909 C339.19143982 330.76643372 339.19315186 329.78704834 339.19491577 328.77798462 C339.19824282 325.46503568 339.18715214 322.15228612 339.17626953 318.83935547 C339.17565727 316.43615793 339.17592314 314.03296003 339.17700005 311.62976265 C339.17745295 305.17390586 339.16583222 298.71812269 339.15177917 292.26228333 C339.14041846 286.21204385 339.13985453 280.1618226 339.13842773 274.11157227 C339.12791861 256.39859045 339.0999965 238.68562243 339.07421875 220.97265625 C339.03296875 181.41390625 338.99171875 141.85515625 338.94921875 101.09765625 C225.42921875 101.09765625 111.90921875 101.09765625 -5.05078125 101.09765625 Z " fill="#000000" transform="translate(89.05078125,87.90234375)"/>
<path d="M0 0 C4.56613335 3.52800712 7.39203514 8.27766793 9.19921875 13.69921875 C9.31536028 16.15536002 9.37719838 18.58427454 9.39208984 21.04125977 C9.40435608 22.15899025 9.40435608 22.15899025 9.41687012 23.29930115 C9.4416937 25.76723437 9.45823709 28.23510995 9.47265625 30.703125 C9.47797993 31.54843214 9.4833036 32.39373928 9.4887886 33.26466179 C9.51551384 37.74357063 9.5348861 42.22245174 9.54931641 46.70141602 C9.56262527 50.39600551 9.59042171 54.09003872 9.63134766 57.78442383 C9.68087104 62.25538429 9.70546207 66.72584236 9.71254349 71.19706535 C9.71922537 72.89421002 9.73436694 74.59134483 9.7584343 76.28833199 C9.88270036 85.58473433 9.94226676 93.85774547 4.19921875 101.69921875 C1.8828125 103.953125 1.8828125 103.953125 -0.36328125 105.26171875 C-1.10707031 105.71675781 -1.85085937 106.17179687 -2.6171875 106.640625 C-8.39912656 109.44367596 -15.01675425 109.6636542 -21.20703125 108.0859375 C-27.14467195 105.7779847 -31.36038711 102.0551786 -34.80078125 96.69921875 C-36.66117244 92.06715296 -37.05797636 88.14381569 -37.07543945 83.16845703 C-37.08055038 82.43915985 -37.08566132 81.70986267 -37.09092712 80.95846558 C-37.10475818 78.56206923 -37.10387115 76.16596262 -37.1015625 73.76953125 C-37.10545327 72.09333185 -37.10978872 70.41713344 -37.11454773 68.74093628 C-37.1219962 65.23236898 -37.12172884 61.72390234 -37.11645508 58.21533203 C-37.11066519 53.73436235 -37.12758637 49.25380664 -37.15079975 44.77290535 C-37.16558158 41.3120587 -37.16640271 37.85131071 -37.16329002 34.39043808 C-37.1638011 32.73913631 -37.16899842 31.08782871 -37.17910194 29.43655777 C-37.19153461 27.12036031 -37.18463446 24.80495572 -37.1730957 22.48876953 C-37.17372513 21.17449982 -37.17435455 19.8602301 -37.17500305 18.50613403 C-36.47339991 11.36880604 -34.03707904 5.70785142 -28.80078125 0.69921875 C-19.89393258 -5.18990912 -9.22124377 -5.1823093 0 0 Z " fill="#000000" transform="translate(161.80078125,51.30078125)"/>
<path d="M0 0 C6.4719075 3.8666905 10.60416402 9.30857304 12.625 16.5 C12.84453546 18.96287549 12.9687139 21.43518622 13.02319336 23.90722656 C13.04127045 24.62355759 13.05934753 25.33988861 13.07797241 26.07792664 C13.13406875 28.43206656 13.17561086 30.78614723 13.21484375 33.140625 C13.24629566 34.7896135 13.27783703 36.43860029 13.3094635 38.08758545 C13.37280639 41.54056909 13.42759429 44.99357905 13.4777832 48.44677734 C13.54350835 52.84965221 13.64180838 57.2511465 13.74812984 61.65320206 C13.82475367 65.05900003 13.87801895 68.46488535 13.92508125 71.87120819 C13.95132978 73.49309941 13.98599392 75.114879 14.02958488 76.73639679 C14.3025783 87.29799519 13.61817663 95.49664312 6.59765625 103.9375 C0.42772421 108.98447917 -4.66716329 111.07723377 -12.71875 110.87109375 C-19.42341313 109.93441287 -24.7285356 106.81391554 -28.875 101.5 C-32.60106112 96.12753978 -33.67394022 91.38549732 -33.66552734 84.89916992 C-33.67224457 84.15051163 -33.67896179 83.40185333 -33.68588257 82.63050842 C-33.70482768 80.16376037 -33.70878512 77.69728496 -33.7109375 75.23046875 C-33.7173684 73.50799957 -33.72409698 71.78553148 -33.73110962 70.06306458 C-33.74307405 66.45437082 -33.74679136 62.84577273 -33.74560547 59.23706055 C-33.74540245 54.62705295 -33.77269022 50.01766301 -33.80714989 45.40780163 C-33.82945764 41.85001341 -33.83344181 38.29237285 -33.83238602 34.73452187 C-33.83473669 33.03575833 -33.84353003 31.33699039 -33.85905075 29.63829613 C-34.00621024 11.86681635 -34.00621024 11.86681635 -27.62890625 4.4765625 C-27.07074219 4.03054687 -26.51257813 3.58453125 -25.9375 3.125 C-25.38191406 2.66351563 -24.82632812 2.20203125 -24.25390625 1.7265625 C-17.3443263 -2.78405726 -7.56383269 -3.34525673 0 0 Z " fill="#000000" transform="translate(373.375,49.5)"/>
<path d="M0 0 C1.0832959 -0.00287018 2.1665918 -0.00574036 3.28271484 -0.00869751 C5.56543503 -0.01073242 7.84817288 -0.0052428 10.13085938 0.00732422 C13.61368001 0.0233853 17.09534022 0.00745525 20.578125 -0.01171875 C22.80208588 -0.00973622 25.02604604 -0.00589234 27.25 0 C28.28560059 -0.00607269 29.32120117 -0.01214539 30.38818359 -0.0184021 C36.20564752 0.03785304 40.58371834 0.37085677 45.625 3.3984375 C49.23465373 7.45319278 49.06329554 11.84017429 49.0234375 17.0234375 C49.02630768 17.8479541 49.02917786 18.6724707 49.03213501 19.52197266 C49.03417072 21.26009816 49.0286754 22.99824683 49.01611328 24.73632812 C49.000052 27.38984629 49.01597809 30.04184145 49.03515625 32.6953125 C49.03317373 34.38802418 49.02932987 36.08073492 49.0234375 37.7734375 C49.02951019 38.56314941 49.03558289 39.35286133 49.0418396 40.16650391 C48.98371437 44.74125074 48.71563072 47.92670526 45.625 51.3984375 C39.69723595 54.9584021 34.03278069 54.83664877 27.25 54.796875 C25.62505615 54.80118027 25.62505615 54.80118027 23.96728516 54.80557251 C21.68456497 54.80760742 19.40182712 54.8021178 17.11914062 54.78955078 C13.63631999 54.7734897 10.15465978 54.78941975 6.671875 54.80859375 C4.44791412 54.80661122 2.22395396 54.80276734 0 54.796875 C-1.03560059 54.80294769 -2.07120117 54.80902039 -3.13818359 54.8152771 C-9.84971396 54.7503763 -15.02683343 54.29870024 -20.28759766 49.74169922 C-21.92742156 46.20801493 -21.80273256 42.72563596 -21.7734375 38.90625 C-21.77630768 38.08269012 -21.77917786 37.25913025 -21.78213501 36.41061401 C-21.7841736 34.67070833 -21.77865804 32.93077962 -21.76611328 31.19091797 C-21.7500971 28.53951175 -21.76594708 25.88963931 -21.78515625 23.23828125 C-21.78317298 21.54426749 -21.77932757 19.85025468 -21.7734375 18.15625 C-21.77951019 17.36856232 -21.78558289 16.58087463 -21.7918396 15.76931763 C-21.73111251 10.96954928 -21.28110707 7.41000781 -18.375 3.3984375 C-12.52237683 -0.23929039 -6.74464085 -0.03955012 0 0 Z " fill="#000000" transform="translate(140.375,327.6015625)"/>
<path d="M0 0 C1.0832959 -0.00287018 2.1665918 -0.00574036 3.28271484 -0.00869751 C5.56543503 -0.01073242 7.84817288 -0.0052428 10.13085938 0.00732422 C13.61368001 0.0233853 17.09534022 0.00745525 20.578125 -0.01171875 C22.80208588 -0.00973622 25.02604604 -0.00589234 27.25 0 C28.28560059 -0.00607269 29.32120117 -0.01214539 30.38818359 -0.0184021 C36.1893578 0.03769551 40.63550693 0.29719255 45.625 3.3984375 C48.85168253 7.90607262 49.067731 12.26798955 49.0234375 17.6484375 C49.02630768 18.42477539 49.02917786 19.20111328 49.03213501 20.00097656 C49.0341674 21.63477309 49.02869547 23.26859441 49.01611328 24.90234375 C49.00004683 27.39118288 49.01598904 29.87839837 49.03515625 32.3671875 C49.03317367 33.96094105 49.02932969 35.5546936 49.0234375 37.1484375 C49.02951019 37.88610352 49.03558289 38.62376953 49.0418396 39.38378906 C48.97787118 44.12521854 48.40460242 47.5153677 45.625 51.3984375 C39.77237683 55.03616539 33.99464085 54.83642512 27.25 54.796875 C25.62505615 54.80118027 25.62505615 54.80118027 23.96728516 54.80557251 C21.68456497 54.80760742 19.40182712 54.8021178 17.11914062 54.78955078 C13.63631999 54.7734897 10.15465978 54.78941975 6.671875 54.80859375 C4.44791412 54.80661122 2.22395396 54.80276734 0 54.796875 C-1.03560059 54.80294769 -2.07120117 54.80902039 -3.13818359 54.8152771 C-9.85360522 54.75033867 -15.00686686 54.28804981 -20.28759766 49.75756836 C-21.95247554 46.14559823 -21.8024372 42.55265977 -21.7734375 38.65234375 C-21.77630768 37.80421616 -21.77917786 36.95608856 -21.78213501 36.08226013 C-21.78417364 34.29108003 -21.77865784 32.49987757 -21.76611328 30.70874023 C-21.75007623 27.9739371 -21.76595806 25.24061623 -21.78515625 22.50585938 C-21.78317339 20.76301758 -21.77932884 19.02017671 -21.7734375 17.27734375 C-21.77951019 16.462621 -21.78558289 15.64789825 -21.7918396 14.80848694 C-21.73561611 10.24519318 -21.55374472 6.94277438 -18.375 3.3984375 C-12.44723595 -0.1615271 -6.78278069 -0.03977377 0 0 Z " fill="#000000" transform="translate(344.375,327.6015625)"/>
<path d="M0 0 C1.0625148 -0.00428513 2.1250296 -0.00857025 3.21974182 -0.01298523 C5.46134734 -0.01871476 7.70297145 -0.01923896 9.94458008 -0.01489258 C13.36376822 -0.01173274 16.78209057 -0.03520941 20.20117188 -0.06054688 C22.3841135 -0.06282009 24.56705743 -0.06352326 26.75 -0.0625 C27.76686386 -0.07170975 28.78372772 -0.08091949 29.83140564 -0.09040833 C36.50679176 -0.04714682 41.58978995 0.44601798 46.85180664 4.92797852 C48.55593131 8.63902214 48.3891325 12.22840789 48.375 16.265625 C48.38024185 17.13594864 48.3854837 18.00627228 48.3908844 18.90296936 C48.39729954 20.74121027 48.39597416 22.57949226 48.38745117 24.41772461 C48.3789459 27.22519316 48.40770061 30.03062327 48.43945312 32.83789062 C48.44106543 34.62630148 48.44048704 36.41471592 48.4375 38.203125 C48.44873398 39.03972153 48.45996796 39.87631805 48.47154236 40.73826599 C48.42558349 44.5965659 48.2082721 46.82641864 46.28540039 50.24438477 C40.63703445 55.19972132 34.00434116 54.60793279 26.8828125 54.6015625 C25.2890403 54.60799019 25.2890403 54.60799019 23.66307068 54.61454773 C21.42146516 54.62027726 19.17984105 54.62080146 16.93823242 54.61645508 C13.51904428 54.61329524 10.10072193 54.63677191 6.68164062 54.66210938 C4.498699 54.66438259 2.31575507 54.66508576 0.1328125 54.6640625 C-0.88405136 54.67327225 -1.90091522 54.68248199 -2.94859314 54.69197083 C-9.62397926 54.64870932 -14.70697745 54.15554452 -19.96899414 49.67358398 C-21.67311881 45.96254036 -21.50632 42.37315461 -21.4921875 38.3359375 C-21.49742935 37.46561386 -21.5026712 36.59529022 -21.5080719 35.69859314 C-21.51448704 33.86035223 -21.51316166 32.02207024 -21.50463867 30.18383789 C-21.4961334 27.37636934 -21.52488811 24.57093923 -21.55664062 21.76367188 C-21.55825293 19.97526102 -21.55767454 18.18684658 -21.5546875 16.3984375 C-21.56592148 15.56184097 -21.57715546 14.72524445 -21.58872986 13.86329651 C-21.54277099 10.0049966 -21.3254596 7.77514386 -19.40258789 4.35717773 C-13.75422195 -0.59815882 -7.12152866 -0.00637029 0 0 Z " fill="#000000" transform="translate(242.05859375,327.69921875)"/>
<path d="M0 0 C1.10149384 -0.01591187 2.20298767 -0.03182373 3.33786011 -0.04821777 C4.52332428 -0.04841919 5.70878845 -0.04862061 6.93017578 -0.04882812 C8.76480881 -0.06024841 8.76480881 -0.06024841 10.63650513 -0.07189941 C13.22379515 -0.08270531 15.81112882 -0.08555156 18.3984375 -0.08105469 C22.3537696 -0.08008346 26.30715558 -0.12168201 30.26220703 -0.16601562 C32.7765259 -0.17122337 35.29085152 -0.17391081 37.80517578 -0.17382812 C38.98659149 -0.19022339 40.1680072 -0.20661865 41.38522339 -0.22351074 C50.5417203 -0.14659687 50.5417203 -0.14659687 54.23144531 2.76953125 C57.94630262 7.10872761 57.68679715 11.14285458 57.73876953 16.59570312 C57.74684128 17.3984819 57.75491302 18.20126068 57.76322937 19.02836609 C57.77705278 20.72714082 57.78778273 22.42594312 57.7956543 24.12475586 C57.81285663 26.71261695 57.85675521 29.29919646 57.90087891 31.88671875 C57.91100751 33.53970418 57.91952309 35.19270043 57.92626953 36.84570312 C57.94377762 37.61465408 57.96128571 38.38360504 57.97932434 39.17585754 C57.95858071 44.35637281 56.99090939 47.3553654 53.50048828 51.41992188 C50.35276264 53.41417707 47.87666924 53.67633434 44.18457031 53.69458008 C43.12311798 53.70411209 42.06166565 53.7136441 40.9680481 53.72346497 C39.82633148 53.72255356 38.68461487 53.72164215 37.50830078 53.72070312 C36.32960419 53.72498825 35.15090759 53.72927338 33.93649292 53.73368835 C31.44334556 53.73943094 28.95018145 53.73993245 26.45703125 53.7355957 C22.64700632 53.7324397 18.83776074 53.75588331 15.02783203 53.78125 C12.60465593 53.78352341 10.18147774 53.7842263 7.75830078 53.78320312 C6.62063263 53.79241287 5.48296448 53.80162262 4.31082153 53.81111145 C-5.77784572 53.75225891 -5.77784572 53.75225891 -10.49951172 50.41992188 C-13.08665344 46.5392093 -12.80528527 43.27354762 -12.80029297 38.77148438 C-12.80457809 37.92194183 -12.80886322 37.07239929 -12.8132782 36.19711304 C-12.81902036 34.39997244 -12.8195226 32.6028086 -12.81518555 30.80566406 C-12.81203146 28.06209389 -12.83546503 25.31960825 -12.86083984 22.57617188 C-12.86311351 20.8287774 -12.86381602 19.08138003 -12.86279297 17.33398438 C-12.87200272 16.51612457 -12.88121246 15.69826477 -12.89070129 14.85562134 C-12.85324144 10.22035081 -12.53042912 7.15812474 -9.49951172 3.41992188 C-6.33487878 0.53750869 -4.24556792 0.03693143 0 0 Z " fill="#000000" transform="translate(335.49951171875,236.580078125)"/>
<path d="M0 0 C1.10149384 -0.01591187 2.20298767 -0.03182373 3.33786011 -0.04821777 C4.52332428 -0.04841919 5.70878845 -0.04862061 6.93017578 -0.04882812 C8.76480881 -0.06024841 8.76480881 -0.06024841 10.63650513 -0.07189941 C13.22379515 -0.08270531 15.81112882 -0.08555156 18.3984375 -0.08105469 C22.3537696 -0.08008346 26.30715558 -0.12168201 30.26220703 -0.16601562 C32.7765259 -0.17122337 35.29085152 -0.17391081 37.80517578 -0.17382812 C38.98659149 -0.19022339 40.1680072 -0.20661865 41.38522339 -0.22351074 C50.5417203 -0.14659687 50.5417203 -0.14659687 54.23144531 2.76953125 C57.94630262 7.10872761 57.68679715 11.14285458 57.73876953 16.59570312 C57.74684128 17.3984819 57.75491302 18.20126068 57.76322937 19.02836609 C57.77705278 20.72714082 57.78778273 22.42594312 57.7956543 24.12475586 C57.81285663 26.71261695 57.85675521 29.29919646 57.90087891 31.88671875 C57.91100751 33.53970418 57.91952309 35.19270043 57.92626953 36.84570312 C57.94377762 37.61465408 57.96128571 38.38360504 57.97932434 39.17585754 C57.95858071 44.35637281 56.99090939 47.3553654 53.50048828 51.41992188 C50.34845966 53.41800012 47.86622557 53.67636646 44.16870117 53.69458008 C42.57168114 53.7088781 42.57168114 53.7088781 40.94239807 53.72346497 C39.7975444 53.72255356 38.65269073 53.72164215 37.47314453 53.72070312 C36.29207626 53.72498825 35.111008 53.72927338 33.89414978 53.73368835 C31.39680624 53.73943051 28.89944598 53.73993277 26.40209961 53.7355957 C22.58108996 53.73243684 18.76085526 53.75589376 14.93994141 53.78125 C12.51351009 53.78352309 10.08707669 53.78422644 7.66064453 53.78320312 C6.51781509 53.79241287 5.37498566 53.80162262 4.19752502 53.81111145 C3.12969284 53.80488266 2.06186066 53.79865387 0.96166992 53.79223633 C-0.44253456 53.79318047 -0.44253456 53.79318047 -1.87510681 53.79414368 C-5.79030782 53.23586337 -8.42200595 51.41722543 -11.28710938 48.76538086 C-13.10611214 45.24642001 -12.92751532 41.76257515 -12.89794922 37.89257812 C-12.9008194 37.06664658 -12.90368958 36.24071503 -12.90664673 35.38975525 C-12.90868511 33.64565341 -12.90317102 31.9015286 -12.890625 30.1574707 C-12.87458798 27.49508206 -12.89047017 24.83421611 -12.90966797 22.171875 C-12.9076851 20.47460604 -12.90384051 18.77733802 -12.89794922 17.08007812 C-12.90402191 16.28722916 -12.9100946 15.49438019 -12.91635132 14.67750549 C-12.85852658 10.10667253 -12.46873813 7.11401604 -9.49951172 3.41992188 C-6.33597984 0.53650864 -4.24507298 0.03692712 0 0 Z " fill="#000000" transform="translate(131.49951171875,236.580078125)"/>
<path d="M0 0 C1.62727776 -0.01441132 1.62727776 -0.01441132 3.28742981 -0.02911377 C4.46447983 -0.03336365 5.64152985 -0.03761353 6.85424805 -0.04199219 C8.06034225 -0.04769226 9.26643646 -0.05339233 10.50907898 -0.05926514 C13.06545125 -0.06872565 15.62183578 -0.07525327 18.17822266 -0.07910156 C22.08932807 -0.08880112 25.99990682 -0.1198131 29.91088867 -0.15136719 C32.39200534 -0.15789763 34.87312577 -0.16314794 37.35424805 -0.16699219 C39.11071404 -0.18551239 39.11071404 -0.18551239 40.90266418 -0.20440674 C41.9969725 -0.20140564 43.09128082 -0.19840454 44.21875 -0.1953125 C45.17868362 -0.19895813 46.13861725 -0.20260376 47.12763977 -0.20635986 C50.3468888 0.23576529 52.19244776 1.25075831 54.8034668 3.16113281 C57.41207835 7.07405015 57.14556552 10.44796971 57.17456055 14.99316406 C57.18358902 15.86253098 57.19261749 16.73189789 57.20191956 17.62760925 C57.21642688 19.46760615 57.22530999 21.3076547 57.22900391 23.14770508 C57.24088032 25.95320448 57.29004168 28.75648963 57.34057617 31.56152344 C57.35004306 33.35122627 57.35727683 35.14094259 57.36206055 36.93066406 C57.38159286 37.76523636 57.40112518 38.59980865 57.42124939 39.45967102 C57.38922054 43.62652617 57.0914825 46.34902371 54.45605469 49.67553711 C50.85151419 53.05315577 48.35572129 53.28857451 43.60107422 53.35400391 C42.00878242 53.3780983 42.00878242 53.3780983 40.38432312 53.40267944 C35.5347054 53.44718053 30.68522335 53.48818524 25.83544922 53.51123047 C23.27773952 53.52779784 20.72007627 53.5550977 18.16259766 53.59326172 C14.47363278 53.64801886 10.78575206 53.66990306 7.09643555 53.68457031 C5.38522774 53.71857437 5.38522774 53.71857437 3.63945007 53.75326538 C-5.21529654 53.72970168 -5.21529654 53.72970168 -8.90234375 50.75341797 C-14.05337083 44.93309174 -12.49898136 36.62130674 -12.54663086 29.19506836 C-12.56318653 27.30269062 -12.59047155 25.41037531 -12.62866211 23.51831055 C-12.68347792 20.78824467 -12.70531138 18.05964391 -12.7199707 15.32910156 C-12.74264008 14.48623093 -12.76530945 13.64336029 -12.78866577 12.77494812 C-12.77288358 8.37815739 -12.62973095 6.70278374 -9.78881836 3.15063477 C-6.18278964 0.3831147 -4.48014912 0.03194671 0 0 Z " fill="#000000" transform="translate(233.196533203125,236.8388671875)"/>
</svg>
