<?xml version="1.0" standalone="no"?>
<!DOCTYPE svg PUBLIC "-//W3C//DTD SVG 20010904//EN"
 "http://www.w3.org/TR/2001/REC-SVG-20010904/DTD/svg10.dtd">
<svg version="1.0" xmlns="http://www.w3.org/2000/svg"
 width="980.000000pt" height="980.000000pt" viewBox="0 0 980.000000 980.000000"
 preserveAspectRatio="xMidYMid meet">

<g transform="translate(0.000000,980.000000) scale(0.100000,-0.100000)"
fill="#000000" stroke="none">
<path d="M3510 8889 c-570 -20 -870 -66 -1181 -180 -299 -109 -517 -246 -743
-467 -253 -248 -403 -491 -521 -846 -148 -445 -170 -820 -162 -2741 5 -1154
12 -1423 42 -1690 53 -459 199 -859 424 -1163 91 -123 253 -290 382 -394 264
-213 638 -370 1037 -437 350 -59 573 -66 2112 -66 1539 0 1762 7 2112 66 404
68 757 216 1031 434 405 323 659 747 767 1282 77 384 85 585 85 2208 0 1546
-7 1767 -66 2118 -62 370 -192 696 -386 971 -75 105 -334 366 -443 446 -247
182 -548 310 -889 380 -179 36 -345 56 -601 71 -242 14 -2652 20 -3000 8z
m2930 -728 c460 -27 684 -74 936 -197 141 -69 245 -146 364 -271 148 -154 238
-305 308 -518 114 -343 127 -581 127 -2275 0 -1698 -13 -1927 -126 -2273 -73
-223 -169 -379 -333 -543 -164 -164 -296 -246 -519 -323 -358 -123 -571 -136
-2297 -136 -1526 0 -1792 10 -2100 80 -296 66 -509 176 -698 359 -167 161
-264 315 -340 537 -125 362 -137 568 -137 2304 0 1300 6 1585 41 1865 39 313
121 557 254 756 68 102 252 286 354 354 201 134 481 226 786 259 87 9 458 27
710 35 263 7 2502 -3 2670 -13z"/>
<path d="M6950 7509 c-119 -19 -253 -110 -322 -219 -89 -140 -93 -346 -7 -496
33 -59 115 -139 179 -176 141 -82 339 -79 484 6 67 40 144 125 181 201 68 137
67 283 -1 423 -67 137 -204 238 -354 262 -74 11 -84 11 -160 -1z"/>
<path d="M4765 6949 c-473 -26 -943 -234 -1294 -573 -401 -387 -622 -908 -622
-1466 0 -301 47 -549 154 -800 293 -690 912 -1159 1652 -1250 100 -12 361 -15
452 -5 480 54 889 246 1226 574 279 270 477 619 566 994 65 275 71 611 15 887
-134 660 -591 1218 -1214 1483 -292 124 -597 175 -935 156z m409 -744 c258
-58 483 -181 666 -365 184 -183 301 -394 362 -654 18 -75 22 -123 22 -276 1
-205 -8 -266 -59 -426 -133 -409 -467 -735 -876 -858 -154 -46 -196 -51 -394
-51 -172 1 -200 3 -295 27 -262 66 -458 175 -640 358 -187 187 -309 410 -366
671 -22 100 -30 332 -15 441 32 240 124 458 277 654 190 244 498 431 799 483
33 6 71 13 85 15 56 10 367 -4 434 -19z"/>
</g>
</svg>
