<?xml version="1.0" standalone="no"?>
<!DOCTYPE svg PUBLIC "-//W3C//DTD SVG 20010904//EN"
 "http://www.w3.org/TR/2001/REC-SVG-20010904/DTD/svg10.dtd">
<svg version="1.0" xmlns="http://www.w3.org/2000/svg"
 width="1024.000000pt" height="1024.000000pt" viewBox="0 0 1024.000000 1024.000000"
 preserveAspectRatio="xMidYMid meet">

<g transform="translate(0.000000,1024.000000) scale(0.100000,-0.100000)"
fill="#000000" stroke="none">
<path d="M1055 10234 c-299 -36 -503 -127 -697 -313 -180 -171 -294 -384 -339
-631 -21 -112 -21 -8228 0 -8340 42 -230 141 -426 300 -592 171 -180 384 -294
631 -339 63 -12 755 -14 4175 -14 3904 0 4104 1 4188 18 239 49 442 160 608
335 159 166 258 362 300 592 21 112 21 8228 0 8340 -44 243 -154 452 -328 621
-164 160 -338 253 -573 306 -70 16 -353 17 -4155 19 -2244 0 -4093 0 -4110 -2z
m1450 -1433 c173 -36 312 -109 441 -233 180 -173 269 -371 281 -623 4 -96 1
-139 -15 -215 -75 -362 -349 -641 -704 -715 -93 -20 -272 -20 -365 -1 -291 62
-538 267 -653 543 -93 223 -92 481 3 711 63 153 221 336 363 420 200 119 429
159 649 113z m4839 -2317 c788 -108 1306 -635 1440 -1464 34 -211 36 -322 36
-1963 l0 -1637 -762 2 -763 3 -6 1440 c-5 1431 -5 1441 -27 1539 -56 257 -147
428 -290 548 -59 49 -186 112 -272 135 -101 28 -396 24 -505 -5 -348 -95 -543
-329 -632 -758 -15 -71 -17 -229 -20 -1491 l-4 -1413 -734 0 -735 0 0 2470 0
2470 735 0 735 0 0 -326 0 -325 73 98 c299 402 751 651 1257 693 120 10 333 3
474 -16z m-4244 -2594 l0 -2470 -765 0 -765 0 0 2470 0 2470 765 0 765 0 0
-2470z"/>
</g>
</svg>
