<?xml version="1.0" encoding="UTF-8"?>
<svg version="1.1" xmlns="http://www.w3.org/2000/svg" width="320" height="403">
<path d="M0 0 C5.85253598 -0.08319782 11.45035998 0.1665713 17.25 0.90625 C27.47800167 2.12356186 37.72445339 2.82206045 48 3.5 C58.00010086 4.15976674 67.97871342 4.8222462 77.93359375 5.99609375 C88.28446363 7.21496721 98.66459324 7.8828337 109.0625 8.5625 C111.91623856 8.75123099 114.76988656 8.94114761 117.62339783 9.13328552 C119.37745708 9.25119086 121.13165079 9.36712109 122.88600159 9.48060608 C124.08917274 9.56090309 124.08917274 9.56090309 125.31665039 9.64282227 C126.00626358 9.68786392 126.69587677 9.73290558 127.40638733 9.77931213 C128.9070646 9.90700324 130.40690748 10.05090882 131.9013567 10.23788166 C138.01781348 10.99623361 144.05163893 11.17006777 150.21118164 11.20532227 C151.8371225 11.22017166 151.8371225 11.22017166 153.49591064 11.23532104 C157.05063756 11.26670947 160.60537781 11.2916032 164.16015625 11.31640625 C166.63594393 11.33699538 169.11172824 11.35799234 171.58750916 11.37937927 C178.08276639 11.4343977 184.57805428 11.48389569 191.07336426 11.53222656 C197.70974469 11.58258986 204.34607974 11.6381983 210.98242188 11.69335938 C223.98824347 11.8006933 236.99410351 11.90219262 250 12 C250 14.97 250 17.94 250 21 C251.340625 20.979375 252.68125 20.95875 254.0625 20.9375 C258.12754541 20.87496084 261.98162775 21.40476188 266 22 C266.16462232 33.21348005 265.7429687 44.20889103 264.6875 55.375 C264.55070719 56.88518107 264.41474088 58.3954372 264.27954102 59.90576172 C263.99880283 63.03448012 263.71458357 66.16285179 263.42773438 69.29101562 C262.80053375 76.15896898 262.21378816 83.0303832 261.62734985 89.9019165 C261.43742174 92.12591639 261.24650435 94.34982966 261.05541992 96.57373047 C260.25913417 105.8579649 259.49969099 115.14467087 258.76928711 124.43432617 C258.05646924 133.43922643 257.27881257 142.43812882 256.5 151.4375 C255.52435222 162.71942063 254.56789638 174.00182286 253.74223995 185.29595757 C253.3703999 190.32559929 252.97903567 195.34935641 252.48550415 200.36863708 C250.76228552 218.45774907 250.65261704 236.48905863 250.59528303 254.64157414 C250.57938967 259.0310602 250.55268694 263.420482 250.5272522 267.80992126 C250.48091898 276.07869236 250.44395874 284.34747619 250.41057932 292.61630863 C250.3720316 302.04843 250.32270995 311.48048611 250.27259517 320.912552 C250.16995356 340.2749873 250.08086038 359.63746231 250 379 C245.71 379 241.42 379 237 379 C237 380.98 237 382.96 237 385 C236.67 385.66 236.34 386.32 236 387 C219.67203779 386.60600438 203.47313724 385.572763 187.21362782 384.09952164 C185.84158644 383.97560582 184.46941686 383.85310167 183.09712505 383.73199081 C177.95445841 383.27601013 172.816608 382.78350118 167.67910767 382.2724762 C146.67307985 380.23284543 125.84510138 379.52563478 104.74834466 379.49388909 C100.4416492 379.48426732 96.13504886 379.45805323 91.82841492 379.43388367 C83.73705169 379.39084975 75.64570752 379.3619213 67.55426615 379.33856028 C58.31536304 379.31116204 49.07655867 379.26727805 39.83772719 379.22227156 C20.89186917 379.13033353 1.94598785 379.05883047 -17 379 C-17 374.71 -17 370.42 -17 366 C-21.29 366 -25.58 366 -30 366 C-29.51510143 345.98539332 -28.03403404 326.17248648 -26.20501709 306.24511719 C-25.66782555 300.36239805 -25.14886511 294.47802568 -24.62835693 288.59381104 C-24.50107356 287.15575724 -24.37350988 285.71772824 -24.2456665 284.27972412 C-23.35318597 274.23710191 -22.5142279 264.19200024 -21.78889942 254.13570118 C-21.36126263 248.31480117 -20.86203649 242.50927522 -20.26408386 236.70329285 C-17.89232035 213.01389359 -17.52207348 189.4658211 -17.49388909 165.67118096 C-17.48432608 160.24340698 -17.458113 154.81570998 -17.43388367 149.38798523 C-17.39069688 139.17166004 -17.36185963 128.95535017 -17.33856028 118.73896235 C-17.3112476 107.0817368 -17.26735561 95.42459056 -17.22227156 83.76742232 C-17.13011267 59.84498991 -17.05871012 35.92253592 -17 12 C-11.72 12 -6.44 12 -1 12 C-1.020625 10.39125 -1.04125 8.7825 -1.0625 7.125 C-1.125 2.25 -1.125 2.25 0 0 Z M9 11 C9 11.33 9 11.66 9 12 C11.64 12 14.28 12 17 12 C17 11.67 17 11.34 17 11 C14.36 11 11.72 11 9 11 Z M-8 22 C-8 136.18 -8 250.36 -8 368 C73.84 368 155.68 368 240 368 C240 253.82 240 139.64 240 22 C158.16 22 76.32 22 -8 22 Z M250 31 C250 50.8 250 70.6 250 91 C250.33 91 250.66 91 251 91 C253.41611863 71.10557638 255.54549368 51.06204516 255 31 C253.35 31 251.7 31 250 31 Z M-18 331 C-18.33 339.25 -18.66 347.5 -19 356 C-18.34 356 -17.68 356 -17 356 C-17 347.75 -17 339.5 -17 331 C-17.33 331 -17.66 331 -18 331 Z " fill="#000000" transform="translate(44,7)"/>
<path d="M0 0 C2.40068511 0.02904744 4.79916389 0.02055353 7.19995117 0.00756836 C27.61320465 0.03292923 27.61320465 0.03292923 34.77612305 6.84155273 C35.70231445 7.6884668 35.70231445 7.6884668 36.6472168 8.55249023 C46.57916959 19.79188254 41.33862305 26.42574736 41.33862305 45.46655273 C21.20862305 45.46655273 1.07862305 45.46655273 -19.66137695 45.46655273 C-20.15637695 35.56655273 -20.15637695 35.56655273 -20.66137695 25.46655273 C-20.99137695 32.06655273 -21.32137695 38.66655273 -21.66137695 45.46655273 C-26.61137695 45.46655273 -31.56137695 45.46655273 -36.66137695 45.46655273 C-36.76968138 40.96590201 -36.84885853 36.46787916 -36.91137695 31.96655273 C-36.94489258 30.69811523 -36.9784082 29.42967773 -37.01293945 28.12280273 C-37.10650263 19.14073757 -36.3956308 13.47404466 -30.09887695 6.71655273 C-20.99664809 0.05805321 -10.7951715 -0.14249229 0 0 Z M1.33862305 15.46655273 C1.00087973 17.6950555 0.66860435 19.92438741 0.33862305 22.15405273 C0.15299805 23.39541992 -0.03262695 24.63678711 -0.22387695 25.91577148 C-0.75080215 30.1872492 -0.75080215 30.1872492 -0.66137695 34.46655273 C1.23906974 36.30970945 1.23906974 36.30970945 3.33862305 37.46655273 C6.9282753 32.08207435 5.55634166 26.02743775 4.33862305 19.90405273 C4.01399791 18.42295056 3.68384432 16.94299014 3.33862305 15.46655273 C2.67862305 15.46655273 2.01862305 15.46655273 1.33862305 15.46655273 Z " fill="#000000" transform="translate(213.661376953125,99.533447265625)"/>
<path d="M0 0 C1.28698886 -0.00596161 1.28698886 -0.00596161 2.59997749 -0.01204365 C5.48592637 -0.0216974 8.37138879 -0.00983 11.25732422 0.00190735 C13.32184025 -0.0005196 15.3863551 -0.00423798 17.4508667 -0.00915527 C23.06647632 -0.01858114 28.68191216 -0.00912456 34.29750824 0.00417686 C40.1657871 0.01547042 46.03405715 0.01138547 51.90234375 0.00942993 C61.75832976 0.00854629 71.61424708 0.01964198 81.47021484 0.03804016 C92.87586566 0.05920883 104.28141581 0.06271807 115.68708229 0.0564782 C126.6450598 0.05078948 137.60300174 0.0564244 148.56097412 0.06765175 C153.23078059 0.07230426 157.90056537 0.07316877 162.57037354 0.0710659 C168.0663797 0.06918643 173.56228298 0.0772606 179.05826569 0.0931263 C181.07915064 0.0973798 183.10004601 0.09821258 185.12093353 0.0954361 C187.87207757 0.09222895 190.62291132 0.10125896 193.37402344 0.11352539 C194.1803377 0.10974607 194.98665195 0.10596674 195.81739998 0.10207289 C199.64063365 0.13238386 201.42805632 0.20158487 204.68701172 2.3742218 C204.99951172 5.8742218 204.99951172 5.8742218 204.68701172 9.3742218 C202.11934581 11.94188771 200.42064629 11.61867588 196.92030817 11.64637071 C195.7006311 11.64070172 195.7006311 11.64070172 194.45631409 11.63491821 C193.59509239 11.63874376 192.73387069 11.64256931 191.84655136 11.64651078 C188.94378244 11.65687798 186.04120995 11.65284162 183.13842773 11.64888 C181.06420711 11.65322443 178.98998809 11.65840666 176.91577148 11.66436768 C171.26915637 11.67779799 165.62260802 11.67833188 159.97598004 11.67580438 C155.26894523 11.67473739 150.56192409 11.67961103 145.85489219 11.6844098 C134.75391846 11.69551893 123.65297856 11.69593449 112.55200195 11.68989563 C101.08443643 11.68385345 89.61699353 11.6961699 78.14944893 11.7174657 C68.31758799 11.73505534 58.48576618 11.74108723 48.65389007 11.73782796 C42.77569653 11.73601074 36.89759045 11.73869481 31.01941109 11.7525425 C25.49302662 11.76507339 19.96683393 11.76322183 14.44045258 11.75013161 C12.4082756 11.7477559 10.37608532 11.75053581 8.34392357 11.75875473 C5.57728752 11.76914017 2.81130479 11.76118801 0.04469299 11.7484436 C-0.76619433 11.75581789 -1.57708166 11.76319217 -2.41254133 11.77078992 C-7.81004117 11.71820724 -7.81004117 11.71820724 -10.31190586 10.00708294 C-11.76106262 7.64336972 -11.72049902 6.09096008 -11.31298828 3.3742218 C-8.73874621 -0.81292975 -4.38030976 -0.04006087 0 0 Z " fill="#000000" transform="translate(63.31298828125,228.6257781982422)"/>
<path d="M0 0 C0.82226418 0.00514356 1.64452837 0.01028713 2.49170965 0.01558656 C3.79790955 0.01196493 3.79790955 0.01196493 5.13049734 0.00827014 C8.06558717 0.00260789 11.00046179 0.01131524 13.93554205 0.01990479 C16.03271062 0.01883254 18.1298789 0.01689472 20.22704595 0.01415223 C25.93551938 0.00929189 31.64391501 0.01697414 37.35237902 0.02710527 C43.31368785 0.03586532 49.27499409 0.03412873 55.23630804 0.03374451 C65.24788242 0.03468202 75.25942655 0.04337797 85.27099127 0.05701417 C96.86352467 0.07274488 108.45602494 0.07801217 120.04856825 0.07727861 C131.17900299 0.07666929 142.30942689 0.08176567 153.43985838 0.09007043 C158.18667142 0.0936107 162.93348063 0.09543473 167.68029493 0.09596413 C173.26407495 0.09696511 178.84782689 0.10304156 184.43159765 0.11313027 C186.48718812 0.11606308 188.54278182 0.11727907 190.59837431 0.11670274 C193.39178855 0.11621571 196.18512289 0.12183132 198.97852606 0.12911195 C199.80302096 0.12756334 200.62751587 0.12601474 201.47699547 0.12441921 C207.05744749 0.14864617 207.05744749 0.14864617 208.17162603 1.26282471 C208.35912603 4.70032471 208.35912603 4.70032471 208.17162603 8.26282471 C205.60396013 10.83049062 203.9052606 10.50727879 200.40492249 10.53497362 C199.18524541 10.52930464 199.18524541 10.52930464 197.9409284 10.52352113 C197.0797067 10.52734667 196.218485 10.53117222 195.33116567 10.53511369 C192.42839675 10.54548089 189.52582427 10.54144453 186.62304205 10.53748292 C184.54882142 10.54182734 182.47460241 10.54700957 180.4003858 10.55297059 C174.75377068 10.5664009 169.10722234 10.56693479 163.46059436 10.56440729 C158.75355955 10.5633403 154.0465384 10.56821394 149.33950651 10.57301271 C138.23853277 10.58412185 127.13759287 10.5845374 116.03661627 10.57849854 C104.56905074 10.57245636 93.10160784 10.58477281 81.63406324 10.60606861 C71.80220231 10.62365825 61.97038049 10.62969015 52.13850439 10.62643087 C46.26031084 10.62461365 40.38220476 10.62729772 34.5040254 10.64114541 C28.97764094 10.6536763 23.45144824 10.65182474 17.92506689 10.63873452 C15.89288991 10.63635881 13.86069963 10.63913872 11.82853788 10.64735764 C9.06190184 10.65774308 6.29591911 10.64979092 3.52930731 10.63704652 C2.71841998 10.6444208 1.90753265 10.65179509 1.07207298 10.65939283 C-4.3229648 10.60683414 -4.3229648 10.60683414 -6.8311978 8.8995921 C-8.24852006 6.57319589 -8.17045811 4.93108103 -7.82837397 2.26282471 C-5.24780296 -0.31774629 -3.51663415 0.02169819 0 0 Z " fill="#000000" transform="translate(59.82837396860123,203.7371752858162)"/>
<path d="M0 0 C1.28698886 -0.00596161 1.28698886 -0.00596161 2.59997749 -0.01204365 C5.48592637 -0.0216974 8.37138879 -0.00983 11.25732422 0.00190735 C13.32184025 -0.0005196 15.3863551 -0.00423798 17.4508667 -0.00915527 C23.06647632 -0.01858114 28.68191216 -0.00912456 34.29750824 0.00417686 C40.1657871 0.01547042 46.03405715 0.01138547 51.90234375 0.00942993 C61.75832976 0.00854629 71.61424708 0.01964198 81.47021484 0.03804016 C92.87586566 0.05920883 104.28141581 0.06271807 115.68708229 0.0564782 C126.6450598 0.05078948 137.60300174 0.0564244 148.56097412 0.06765175 C153.23078059 0.07230426 157.90056537 0.07316877 162.57037354 0.0710659 C168.0663797 0.06918643 173.56228298 0.0772606 179.05826569 0.0931263 C181.07915064 0.0973798 183.10004601 0.09821258 185.12093353 0.0954361 C187.87207757 0.09222895 190.62291132 0.10125896 193.37402344 0.11352539 C194.1803377 0.10974607 194.98665195 0.10596674 195.81739998 0.10207289 C199.64063365 0.13238386 201.42805632 0.20158487 204.68701172 2.3742218 C204.93701172 5.9367218 204.93701172 5.9367218 204.68701172 9.3742218 C202.87960482 11.1816287 200.3989713 10.50217934 197.99238116 10.5126273 C197.16788625 10.5110787 196.34339134 10.5095301 195.49391174 10.50793457 C194.6246718 10.51020013 193.75543185 10.51246568 192.8598513 10.51479989 C189.92405107 10.52117014 186.98829664 10.5203086 184.05249023 10.51948547 C181.95709167 10.52247508 179.86169366 10.52587714 177.76629639 10.52966309 C172.05772275 10.53852737 166.34916408 10.54084221 160.64058423 10.54147887 C155.88380267 10.5424259 151.12702465 10.54610179 146.37024444 10.54965097 C135.15283369 10.5578047 123.93543096 10.56023436 112.71801758 10.55952454 C101.1260813 10.55892344 89.53419151 10.56947948 77.942267 10.5852682 C68.00768837 10.59832002 58.07312497 10.60370943 48.13853782 10.60306913 C42.19722133 10.60281345 36.25594613 10.6057028 30.31463814 10.61624718 C24.72921304 10.62588863 19.14386903 10.62603468 13.55844116 10.61873055 C11.50326864 10.61767977 9.44809116 10.62007654 7.39292717 10.626091 C4.59755276 10.63374464 1.80246308 10.62921051 -0.99290466 10.62145996 C-1.81516885 10.62660352 -2.63743303 10.63174709 -3.48461431 10.63704652 C-9.08471709 10.602493 -9.08471709 10.602493 -11.31298828 8.3742218 C-11.65526196 5.70448711 -11.73411105 4.06352284 -10.3130188 1.73745441 C-7.13138367 -0.43116688 -3.71885679 -0.03401144 0 0 Z " fill="#000000" transform="translate(63.31298828125,314.6257781982422)"/>
<path d="M0 0 C1.28698886 -0.00596161 1.28698886 -0.00596161 2.59997749 -0.01204365 C5.48592637 -0.0216974 8.37138879 -0.00983 11.25732422 0.00190735 C13.32184025 -0.0005196 15.3863551 -0.00423798 17.4508667 -0.00915527 C23.06647632 -0.01858114 28.68191216 -0.00912456 34.29750824 0.00417686 C40.1657871 0.01547042 46.03405715 0.01138547 51.90234375 0.00942993 C61.75832976 0.00854629 71.61424708 0.01964198 81.47021484 0.03804016 C92.87586566 0.05920883 104.28141581 0.06271807 115.68708229 0.0564782 C126.6450598 0.05078948 137.60300174 0.0564244 148.56097412 0.06765175 C153.23078059 0.07230426 157.90056537 0.07316877 162.57037354 0.0710659 C168.0663797 0.06918643 173.56228298 0.0772606 179.05826569 0.0931263 C181.07915064 0.0973798 183.10004601 0.09821258 185.12093353 0.0954361 C187.87207757 0.09222895 190.62291132 0.10125896 193.37402344 0.11352539 C194.1803377 0.10974607 194.98665195 0.10596674 195.81739998 0.10207289 C199.64063365 0.13238386 201.42805632 0.20158487 204.68701172 2.3742218 C204.93701172 5.9367218 204.93701172 5.9367218 204.68701172 9.3742218 C202.87960482 11.1816287 200.3989713 10.50217934 197.99238116 10.5126273 C197.16788625 10.5110787 196.34339134 10.5095301 195.49391174 10.50793457 C194.6246718 10.51020013 193.75543185 10.51246568 192.8598513 10.51479989 C189.92405107 10.52117014 186.98829664 10.5203086 184.05249023 10.51948547 C181.95709167 10.52247508 179.86169366 10.52587714 177.76629639 10.52966309 C172.05772275 10.53852737 166.34916408 10.54084221 160.64058423 10.54147887 C155.88380267 10.5424259 151.12702465 10.54610179 146.37024444 10.54965097 C135.15283369 10.5578047 123.93543096 10.56023436 112.71801758 10.55952454 C101.1260813 10.55892344 89.53419151 10.56947948 77.942267 10.5852682 C68.00768837 10.59832002 58.07312497 10.60370943 48.13853782 10.60306913 C42.19722133 10.60281345 36.25594613 10.6057028 30.31463814 10.61624718 C24.72921304 10.62588863 19.14386903 10.62603468 13.55844116 10.61873055 C11.50326864 10.61767977 9.44809116 10.62007654 7.39292717 10.626091 C4.59755276 10.63374464 1.80246308 10.62921051 -0.99290466 10.62145996 C-1.81516885 10.62660352 -2.63743303 10.63174709 -3.48461431 10.63704652 C-9.08471709 10.602493 -9.08471709 10.602493 -11.31298828 8.3742218 C-11.65526196 5.70448711 -11.73411105 4.06352284 -10.3130188 1.73745441 C-7.13138367 -0.43116688 -3.71885679 -0.03401144 0 0 Z " fill="#000000" transform="translate(63.31298828125,284.6257781982422)"/>
<path d="M0 0 C1.28698886 -0.00596161 1.28698886 -0.00596161 2.59997749 -0.01204365 C5.48592637 -0.0216974 8.37138879 -0.00983 11.25732422 0.00190735 C13.32184025 -0.0005196 15.3863551 -0.00423798 17.4508667 -0.00915527 C23.06647632 -0.01858114 28.68191216 -0.00912456 34.29750824 0.00417686 C40.1657871 0.01547042 46.03405715 0.01138547 51.90234375 0.00942993 C61.75832976 0.00854629 71.61424708 0.01964198 81.47021484 0.03804016 C92.87586566 0.05920883 104.28141581 0.06271807 115.68708229 0.0564782 C126.6450598 0.05078948 137.60300174 0.0564244 148.56097412 0.06765175 C153.23078059 0.07230426 157.90056537 0.07316877 162.57037354 0.0710659 C168.0663797 0.06918643 173.56228298 0.0772606 179.05826569 0.0931263 C181.07915064 0.0973798 183.10004601 0.09821258 185.12093353 0.0954361 C187.87207757 0.09222895 190.62291132 0.10125896 193.37402344 0.11352539 C194.1803377 0.10974607 194.98665195 0.10596674 195.81739998 0.10207289 C199.64063365 0.13238386 201.42805632 0.20158487 204.68701172 2.3742218 C204.93701172 5.9367218 204.93701172 5.9367218 204.68701172 9.3742218 C202.87960482 11.1816287 200.3989713 10.50217934 197.99238116 10.5126273 C197.16788625 10.5110787 196.34339134 10.5095301 195.49391174 10.50793457 C194.6246718 10.51020013 193.75543185 10.51246568 192.8598513 10.51479989 C189.92405107 10.52117014 186.98829664 10.5203086 184.05249023 10.51948547 C181.95709167 10.52247508 179.86169366 10.52587714 177.76629639 10.52966309 C172.05772275 10.53852737 166.34916408 10.54084221 160.64058423 10.54147887 C155.88380267 10.5424259 151.12702465 10.54610179 146.37024444 10.54965097 C135.15283369 10.5578047 123.93543096 10.56023436 112.71801758 10.55952454 C101.1260813 10.55892344 89.53419151 10.56947948 77.942267 10.5852682 C68.00768837 10.59832002 58.07312497 10.60370943 48.13853782 10.60306913 C42.19722133 10.60281345 36.25594613 10.6057028 30.31463814 10.61624718 C24.72921304 10.62588863 19.14386903 10.62603468 13.55844116 10.61873055 C11.50326864 10.61767977 9.44809116 10.62007654 7.39292717 10.626091 C4.59755276 10.63374464 1.80246308 10.62921051 -0.99290466 10.62145996 C-1.81516885 10.62660352 -2.63743303 10.63174709 -3.48461431 10.63704652 C-9.08471709 10.602493 -9.08471709 10.602493 -11.31298828 8.3742218 C-11.65526196 5.70448711 -11.73411105 4.06352284 -10.3130188 1.73745441 C-7.13138367 -0.43116688 -3.71885679 -0.03401144 0 0 Z " fill="#000000" transform="translate(63.31298828125,254.6257781982422)"/>
<path d="M0 0 C0.82060396 0.0015486 1.64120792 0.0030972 2.48667866 0.00469273 C3.78441325 0.0012944 3.78441325 0.0012944 5.1083647 -0.00217259 C8.03034546 -0.00854279 10.95228019 -0.0076813 13.87426716 -0.00685817 C15.95981364 -0.00984778 18.04535955 -0.01324984 20.13090473 -0.01703578 C25.81261974 -0.02590004 31.4943197 -0.02821491 37.17604095 -0.02885157 C41.91045456 -0.0297986 46.64486462 -0.03347449 51.37927687 -0.03702366 C62.54394993 -0.04517738 73.70861491 -0.04760706 84.8732906 -0.04689723 C96.4106954 -0.04629614 107.94805348 -0.05685216 119.48544645 -0.0726409 C129.37331635 -0.08569275 139.26117094 -0.09108213 149.1490494 -0.09044182 C155.06242029 -0.09018615 160.9757497 -0.09307544 166.88911206 -0.10361987 C172.44827245 -0.1132614 178.00735138 -0.11340732 183.56651455 -0.10610324 C185.61201174 -0.10505247 187.6575139 -0.10744919 189.70300251 -0.1134637 C192.48524019 -0.12111746 195.26719181 -0.11658313 198.0494228 -0.10883266 C199.27698265 -0.116548 199.27698265 -0.116548 200.5293417 -0.12441921 C206.10327136 -0.08986569 206.10327136 -0.08986569 208.33154255 2.1384055 C208.58154255 5.1384055 208.58154255 5.1384055 208.33154255 8.1384055 C205.76387665 10.70607141 204.06517712 10.38285958 200.56483901 10.41055441 C199.34516193 10.40488542 199.34516193 10.40488542 198.10084492 10.39910191 C197.23962322 10.40292746 196.37840152 10.40675301 195.49108219 10.41069448 C192.58831327 10.42106168 189.68574079 10.41702532 186.78295857 10.4130637 C184.70873794 10.41740813 182.63451893 10.42259036 180.56030232 10.42855138 C174.9136872 10.44198169 169.26713886 10.44251558 163.62051088 10.43998808 C158.91347607 10.43892109 154.20645492 10.44379473 149.49942303 10.4485935 C138.39844929 10.45970263 127.29750939 10.46011819 116.19653279 10.45407933 C104.72896726 10.44803715 93.26152436 10.4603536 81.79397976 10.4816494 C71.96211883 10.49923904 62.13029701 10.50527093 52.29842091 10.50201166 C46.42022736 10.50019444 40.54212128 10.50287851 34.66394192 10.5167262 C29.13755746 10.52925709 23.61136476 10.52740553 18.08498341 10.51431531 C16.05280643 10.5119396 14.02061615 10.51471951 11.9884544 10.52293843 C9.22181836 10.53332387 6.45583563 10.52537171 3.68922383 10.5126273 C2.8783365 10.52000159 2.06744917 10.52737587 1.2319895 10.53497362 C-4.14022159 10.4826373 -4.14022159 10.4826373 -6.70643753 8.81032914 C-8.24954841 6.12850986 -7.42045873 4.02107706 -6.66845745 1.1384055 C-4.86569511 -0.66435684 -2.40053838 0.0104708 0 0 Z " fill="#000000" transform="translate(59.66845744848251,177.8615944981575)"/>
<path d="M0 0 C1.1888529 0.71431078 2.35868884 1.46195182 3.5 2.25 C4.4075 2.86875 5.315 3.4875 6.25 4.125 C12.20287325 9.74715807 14.50054292 16.06169096 14.875 24.125 C14.68951854 31.7645175 11.40015374 38.17737748 6.2578125 43.74609375 C0.84015888 48.3811974 -6.41975997 50.57021186 -13.5 50.25 C-18.8447351 49.20342257 -24.1311759 47.59943181 -28.5 44.25 C-28.5 43.59 -28.5 42.93 -28.5 42.25 C-29.49 41.92 -30.48 41.59 -31.5 41.25 C-36.56599009 35.75589807 -37.16739777 29.22259306 -37.01831055 22.06640625 C-36.60056479 14.08491624 -34.4216234 9.82646258 -28.6875 4.4375 C-20.549272 -2.09096861 -9.83669795 -4.72236163 0 0 Z " fill="#000000" transform="translate(227.5,48.75)"/>
<path d="M0 0 C1.56471542 -0.01052147 1.56471542 -0.01052147 3.16104126 -0.02125549 C4.87703018 -0.00978989 4.87703018 -0.00978989 6.62768555 0.00190735 C7.8327475 -0.00174332 9.03780945 -0.00539398 10.27938843 -0.00915527 C13.58529737 -0.01587903 16.89064488 -0.0091375 20.19649887 0.00417686 C23.65443724 0.01548707 27.11236095 0.01138418 30.5703125 0.00942993 C36.37757202 0.00854682 42.18471484 0.0196309 47.99194336 0.03804016 C54.70789858 0.05920811 61.42368283 0.06271779 68.13966465 0.0564782 C74.59763918 0.05078528 81.05555344 0.05642935 87.51351929 0.06765175 C90.26306268 0.0722987 93.01256922 0.07317118 95.76211548 0.0710659 C99.60018288 0.06883411 103.43808736 0.08328565 107.27612305 0.0995636 C108.99211197 0.09584747 108.99211197 0.09584747 110.74276733 0.09205627 C111.78591095 0.09914108 112.82905457 0.10622589 113.90380859 0.11352539 C115.2654438 0.1166047 115.2654438 0.1166047 116.65458679 0.11974621 C118.9519043 0.3742218 118.9519043 0.3742218 121.9519043 2.3742218 C122.2644043 5.8742218 122.2644043 5.8742218 121.9519043 9.3742218 C119.4078694 11.91825669 118.51378685 11.62701268 114.98609924 11.63491821 C113.41082458 11.64554543 113.41082458 11.64554543 111.8037262 11.65638733 C110.64678757 11.65390991 109.48984894 11.6514325 108.29785156 11.64888 C107.08318207 11.65399094 105.86851257 11.65910187 104.61703491 11.66436768 C101.28019976 11.67591022 97.94361249 11.6783334 94.60677457 11.67580438 C91.82338003 11.67473641 89.04000853 11.67961357 86.25661892 11.6844098 C79.69108136 11.69551437 73.12560101 11.69593715 66.56005859 11.68989563 C59.78217532 11.68385469 53.00449958 11.69616757 46.22665173 11.7174657 C40.41173716 11.73506752 34.59688874 11.74108529 28.78194851 11.73782796 C25.30705975 11.73601258 21.832319 11.73867634 18.3574543 11.7525425 C14.48333683 11.76742261 10.60948469 11.75816311 6.73535156 11.74653625 C5.00297997 11.75800186 5.00297997 11.75800186 3.23561096 11.7696991 C2.18260803 11.76268478 1.1296051 11.75567047 0.04469299 11.7484436 C-0.87173697 11.74861135 -1.78816694 11.74877909 -2.73236752 11.74895191 C-5.50579902 11.30015645 -6.39603317 10.61262789 -8.0480957 8.3742218 C-8.4230957 5.8742218 -8.4230957 5.8742218 -8.0480957 3.3742218 C-5.69414905 0.19219703 -3.8518673 -0.00071178 0 0 Z " fill="#000000" transform="translate(60.048095703125,344.6257781982422)"/>
<path d="M0 0 C0.91245483 -0.00365067 1.82490967 -0.00730133 2.76501465 -0.01106262 C5.78623977 -0.01917976 8.80693051 -0.00554824 11.828125 0.0090332 C13.92415364 0.00955167 16.02018278 0.00903449 18.11621094 0.00752258 C22.51114146 0.00761236 26.90588874 0.01805279 31.30078125 0.03613281 C36.94024346 0.05882007 42.57943782 0.05936462 48.21893311 0.05261517 C52.54771311 0.04927703 56.87643181 0.05590235 61.2052002 0.0657444 C63.28486816 0.06959937 65.36454294 0.07074339 67.44421387 0.06915855 C70.34835858 0.06878857 73.25215717 0.08138956 76.15625 0.09765625 C77.45145569 0.09394012 77.45145569 0.09394012 78.77282715 0.09014893 C84.73500804 0.14356981 84.73500804 0.14356981 88.078125 2.37231445 C88.390625 5.87231445 88.390625 5.87231445 88.078125 9.37231445 C85.42241884 12.02802061 83.44697526 11.62239163 79.83378601 11.65447998 C78.95736954 11.65200256 78.08095306 11.64952515 77.17797852 11.64697266 C76.25591614 11.65208359 75.33385376 11.65719452 74.3838501 11.66246033 C71.32484512 11.67640163 68.26606429 11.67539614 65.20703125 11.6730957 C63.08715226 11.67698017 60.96727404 11.68131432 58.84739685 11.68608093 C54.39945963 11.69355294 49.95160177 11.69324479 45.50366211 11.68798828 C39.79574222 11.68219272 34.08814672 11.69912214 28.38028049 11.72233295 C24.00089103 11.73704487 19.62158013 11.73794546 15.24217033 11.73482323 C13.13737279 11.73533773 11.032571 11.74059955 8.92779732 11.75063515 C5.98753744 11.76293282 3.04791523 11.75624797 0.10766602 11.74462891 C-0.76672623 11.75227264 -1.64111847 11.75991638 -2.54200745 11.76779175 C-8.48895288 11.71568724 -8.48895288 11.71568724 -10.64555454 10.00517559 C-11.921875 8.37231445 -11.921875 8.37231445 -12.296875 5.87231445 C-11.28686338 -0.86109635 -5.58027136 -0.04939848 0 0 Z " fill="#000000" transform="translate(63.921875,82.627685546875)"/>
<path d="M0 0 C0.91230881 -0.00335861 1.82461761 -0.00671722 2.76457214 -0.01017761 C5.79105986 -0.01970426 8.81749235 -0.02163155 11.84399414 -0.02270508 C13.94145226 -0.02591634 16.03891016 -0.02928031 18.1363678 -0.03279114 C22.53720621 -0.03878661 26.93802497 -0.0406306 31.33886719 -0.04003906 C36.98617869 -0.03993739 42.63336461 -0.05359324 48.28064632 -0.07081127 C52.61369916 -0.08191333 56.94672146 -0.08395883 61.27978706 -0.08342934 C63.36225378 -0.08461203 65.44472122 -0.08904988 67.527174 -0.0967617 C70.43617502 -0.1065259 73.34490109 -0.10369775 76.25390625 -0.09765625 C77.11894775 -0.10327576 77.98398926 -0.10889526 78.87524414 -0.11468506 C84.84917501 -0.08305325 84.84917501 -0.08305325 88.19165039 2.14526367 C88.44165039 5.70776367 88.44165039 5.70776367 88.19165039 9.14526367 C86.28546703 11.05144703 83.47102654 10.27861694 80.93370056 10.29190063 C80.03341629 10.29144745 79.13313202 10.29099426 78.20556641 10.29052734 C76.79102173 10.29556526 76.79102173 10.29556526 75.34790039 10.30070496 C72.21377261 10.31024592 69.07969806 10.31215963 65.94555664 10.31323242 C63.77701291 10.31644277 61.60846941 10.31980667 59.43992615 10.32331848 C54.88768003 10.3293176 50.33545292 10.33115758 45.78320312 10.33056641 C39.93734856 10.33046473 34.09161531 10.34411928 28.24578953 10.36133862 C23.76522761 10.37243295 19.28469527 10.37448641 14.80412102 10.37395668 C12.64825968 10.37514059 10.49239766 10.37958519 8.33654976 10.38728905 C5.32665528 10.39703749 2.31702726 10.39423137 -0.69287109 10.38818359 C-1.59113113 10.3938031 -2.48939117 10.39942261 -3.41487122 10.4052124 C-9.58003443 10.37357885 -9.58003443 10.37357885 -11.80834961 8.14526367 C-11.55834961 4.58276367 -11.55834961 4.58276367 -10.80834961 1.14526367 C-7.45879848 -0.52951189 -3.68358042 -0.00192528 0 0 Z " fill="#000000" transform="translate(63.808349609375,108.854736328125)"/>
<path d="M0 0 C0.91230881 -0.00175232 1.82461761 -0.00350464 2.76457214 -0.00531006 C5.79106529 -0.00972408 8.81750036 -0.00679191 11.84399414 -0.00341797 C13.94145214 -0.0040912 16.03891007 -0.00506138 18.1363678 -0.00631714 C22.53720847 -0.00779355 26.93802887 -0.00564158 31.33886719 -0.00097656 C36.98614334 0.00471718 42.63337193 0.0014436 48.28064632 -0.00454903 C52.61369689 -0.00815915 56.94673616 -0.00701391 61.27978706 -0.00442123 C63.36224943 -0.00375304 65.44471282 -0.00457667 67.527174 -0.00690079 C70.43611249 -0.00943429 73.34497354 -0.00557663 76.25390625 0 C77.11894775 -0.00202423 77.98398926 -0.00404846 78.87524414 -0.00613403 C82.23144673 0.00581286 84.98536929 0.06063416 88.19165039 1.12939453 C88.19165039 3.76939453 88.19165039 6.40939453 88.19165039 9.12939453 C84.82031411 10.81506267 81.00017317 10.28579698 77.29150391 10.29052734 C76.36944153 10.29549225 75.44737915 10.30045715 74.49737549 10.30557251 C71.43842837 10.32021219 68.37953308 10.32699858 65.32055664 10.33251953 C63.20067848 10.3382688 61.08080035 10.34402656 58.96092224 10.34979248 C54.51300819 10.36030714 50.06511224 10.36614699 45.6171875 10.36962891 C39.90928944 10.37511942 34.20162924 10.39915746 28.49380589 10.42760086 C24.11442864 10.44619446 19.73510911 10.45143105 15.35569572 10.45296478 C13.25089147 10.45599846 11.14608839 10.46405092 9.04132271 10.47714996 C6.10109293 10.49414453 3.16144993 10.49234654 0.22119141 10.48583984 C-1.09039696 10.49966202 -1.09039696 10.49966202 -2.42848206 10.51376343 C-8.35375516 10.47254478 -8.35375516 10.47254478 -10.5671854 8.80173874 C-11.80834961 7.12939453 -11.80834961 7.12939453 -11.62084961 4.00439453 C-11.35272461 3.05564453 -11.08459961 2.10689453 -10.80834961 1.12939453 C-7.4585412 -0.54550968 -3.68339737 -0.00859917 0 0 Z " fill="#000000" transform="translate(63.808349609375,134.87060546875)"/>
</svg>
