<?xml version="1.0" encoding="UTF-8"?>
<svg version="1.1" xmlns="http://www.w3.org/2000/svg" width="256" height="256">
<path d="M0 0 C1.56916049 1.00976728 3.14208588 2.0137083 4.71875 3.01171875 C5.84990234 3.72787354 5.84990234 3.72787354 7.00390625 4.45849609 C20.15082705 12.46346974 34.41698308 14.23653272 49.34375 11.06640625 C59.74428038 8.2264556 68.59479351 2.84799808 77.4375 -3.1875 C84.07059348 -7.33844222 91.42491203 -6.57689158 98.859375 -5.17578125 C107.37145166 -2.76266861 115.07242991 1.22392952 121.125 7.75 C121.69863281 8.30300781 122.27226562 8.85601562 122.86328125 9.42578125 C141.25248005 28.54507232 143.82826581 59.34478266 143.375 84.4296875 C142.92504988 97.29376136 138.85380022 107.98607752 129.4296875 116.89453125 C118.46581225 125.72137997 107.71394824 127.04996161 94.09667969 127.04052734 C92.68641304 127.04652051 91.27614965 127.05332786 89.8658905 127.06088257 C86.05367888 127.0784709 82.24155718 127.08323494 78.42930889 127.08451414 C76.04181433 127.08594052 73.65434228 127.09021934 71.26685333 127.09550858 C62.92121441 127.11398608 54.57563917 127.12218217 46.22998047 127.12060547 C38.47736372 127.11940512 30.72502582 127.14049234 22.97247958 127.1720928 C16.29446579 127.19833342 9.61654264 127.2089695 2.93847775 127.20769465 C-1.04023231 127.20718724 -5.01869436 127.21274674 -8.9973526 127.23405075 C-12.74367132 127.25356482 -16.48950882 127.25346901 -20.23584557 127.23901749 C-22.24689979 127.23596463 -24.25795475 127.25251368 -26.26893616 127.26989746 C-39.55626778 127.17890293 -49.88483866 123.59056417 -59.875 114.75 C-69.42388282 104.86363068 -71.11338218 92.89940758 -71.125 79.75 C-71.12567474 79.07249695 -71.12634949 78.3949939 -71.12704468 77.69696045 C-71.08779644 52.90454798 -66.96740086 25.27836233 -48.875 6.75 C-34.71585166 -5.38345996 -16.33453168 -11.13619445 0 0 Z " fill="#000000" transform="translate(91.875,129.25)"/>
<path d="M0 0 C1.38638672 0.60134766 1.38638672 0.60134766 2.80078125 1.21484375 C17.90280272 8.58428846 29.40351759 22.25858317 35 38 C36.85087476 44.44746539 37.35540512 50.62481832 37.3125 57.3125 C37.30686035 58.23603271 37.3012207 59.15956543 37.29541016 60.11108398 C36.97161399 78.36068475 29.69060273 91.44042119 17 104 C16.41476563 104.60714844 15.82953125 105.21429688 15.2265625 105.83984375 C4.63565299 115.97378508 -10.64654695 119.92127495 -24.875 120.4375 C-43.70074828 119.95208272 -59.06696537 112.41417431 -72 99 C-83.23020161 86.62338197 -87.95729374 70.6236841 -87.34375 54.1171875 C-86.2418659 37.54957303 -79.32928872 22.26125004 -67 11 C-48.59878039 -3.93605488 -22.33050996 -10.04715469 0 0 Z " fill="#000000" transform="translate(151,4)"/>
</svg>
