<?xml version="1.0" encoding="UTF-8"?>
<svg version="1.1" xmlns="http://www.w3.org/2000/svg" width="1024" height="1024">
<path d="M0 0 C0.88961426 0.01788574 1.77922852 0.03577148 2.69580078 0.05419922 C72.45254794 1.62835082 140.39806205 17.28569637 204 46 C204.95342285 46.42780762 205.9068457 46.85561523 206.88916016 47.29638672 C221.07070597 53.70464572 234.56416809 61.16341995 248 69 C248.8544873 69.49226074 249.70897461 69.98452148 250.58935547 70.49169922 C269.28987702 81.27526496 287.15330391 93.4972461 304 107 C304.95229492 107.75941895 304.95229492 107.75941895 305.92382812 108.53417969 C313.31717622 114.4383463 320.6333086 120.38965382 327.59375 126.8046875 C329.62402737 128.65698601 331.67955373 130.46721663 333.75390625 132.26953125 C343.51785488 140.7939383 353.21475979 149.58817523 361.70703125 159.39453125 C363.52280957 161.45777509 365.36727353 163.45975434 367.26171875 165.44921875 C374.5201681 173.07342318 381.24887245 180.87613485 387.63476562 189.24072266 C389.02538709 191.03271448 390.45034662 192.79069415 391.890625 194.54296875 C399.32292809 203.59864331 406.00630815 213.03957433 412.50976562 222.78076172 C413.82752884 224.74315811 415.16483322 226.6891823 416.515625 228.62890625 C468.15168123 303.35943551 495.1540127 394.92235844 500 517 C499.98066406 517.88816406 499.96132813 518.77632812 499.94140625 519.69140625 C498.02109604 603.62025826 475.16631615 685.89118237 434 759 C433.36408936 760.13284424 433.36408936 760.13284424 432.71533203 761.28857422 C419.13485707 785.33493718 403.05950238 808.0306258 385.43115234 829.26464844 C384.16361837 830.80160365 382.91800793 832.35658166 381.67578125 833.9140625 C375.7606592 841.327099 369.32011616 848.18733731 362.80957031 855.07275391 C361.02200524 856.97656377 359.25397469 858.89655221 357.4921875 860.82421875 C352.47511321 866.30779671 347.53329089 871.67017426 341.8125 876.4375 C339.82171406 878.15369477 338.01610701 879.98740567 336.1875 881.875 C332.27582588 885.84803372 328.04493274 889.31081794 323.69921875 892.796875 C321.34785812 894.71607528 319.10686141 896.6951334 316.875 898.75 C309.95566723 904.9565063 302.44476542 910.44695027 295 916 C294.26539551 916.54881836 293.53079102 917.09763672 292.77392578 917.66308594 C270.12189566 934.50805946 245.75332316 949.78425058 220.24462891 961.92041016 C217.63359703 963.17622732 215.04215733 964.46896552 212.44921875 965.76171875 C150.31217512 996.50577818 81.2735134 1013.04630068 12.0625 1015.5625 C10.34450195 1015.6251001 10.34450195 1015.6251001 8.59179688 1015.68896484 C0.72081114 1015.9633518 -7.1244081 1016.18597394 -15 1016 C-15.85303711 1015.98211426 -16.70607422 1015.96422852 -17.58496094 1015.94580078 C-94.65763644 1014.17237845 -168.99482357 995.35859667 -238 961 C-238.96260742 960.52336914 -239.92521484 960.04673828 -240.91699219 959.55566406 C-263.03501767 948.53824077 -284.12494254 935.68459628 -304 921 C-304.66112793 920.51611816 -305.32225586 920.03223633 -306.00341797 919.53369141 C-319.08465572 909.94919948 -331.88402771 899.95304145 -343.8359375 888.98046875 C-345.89991208 887.09159671 -348.00290254 885.2605374 -350.125 883.4375 C-353.58602578 880.42821454 -356.79811873 877.22288502 -360.01171875 873.953125 C-361.87986247 872.11801329 -363.80733487 870.43254182 -365.8125 868.75 C-370.80899867 864.44502454 -375.1212434 859.52780196 -379.52050781 854.63232422 C-381.01698103 852.98126483 -382.53192767 851.34948263 -384.0546875 849.72265625 C-390.3225333 843.02446884 -396.27456277 836.17357964 -402 829 C-402.93255908 827.85852891 -403.86621236 826.71795116 -404.80078125 825.578125 C-427.52237268 797.72945751 -447.36737047 766.58809627 -462.93554688 734.19824219 C-464.12087987 731.75036644 -465.3337983 729.31705308 -466.546875 726.8828125 C-505.70237459 647.61236 -520.36483601 558.09238012 -491.08984375 350.14453125 C-490.39555017 348.09556623 -489.69892629 346.04738938 -489 344 C-488.65211426 342.97310059 -488.30422852 341.94620117 -487.94580078 340.88818359 C-482.47667088 324.8612551 -476.03529812 309.39754829 -469 294 C-468.31484014 292.47537904 -467.62991982 290.9506504 -466.9453125 289.42578125 C-455.24289607 263.66180863 -440.50658631 238.96303705 -424 216 C-423.20408447 214.8874585 -423.20408447 214.8874585 -422.39208984 213.75244141 C-414.03818359 202.11672946 -405.23640799 190.94475153 -396 180 C-394.94647244 178.73839994 -393.89308304 177.47668449 -392.83984375 176.21484375 C-387.391078 169.73012478 -381.76594147 163.57583813 -375.66796875 157.6953125 C-373.55890839 155.56463658 -371.61183824 153.41661564 -369.6640625 151.14453125 C-366.07837106 147.00521333 -362.21197187 143.27072508 -358.1875 139.5625 C-357.48536377 138.91071777 -356.78322754 138.25893555 -356.05981445 137.58740234 C-354.04431176 135.72005406 -352.02321433 133.85898557 -350 132 C-349.05125 131.12472656 -348.1025 130.24945313 -347.125 129.34765625 C-341.26364106 124.0029235 -335.17730281 118.9737251 -329 114 C-327.85508027 113.06297447 -326.71056742 112.12545162 -325.56640625 111.1875 C-316.3485645 103.67093777 -306.81721101 96.71156782 -297 90 C-296.25282715 89.48904785 -295.5056543 88.9780957 -294.73583984 88.45166016 C-279.64408535 78.17457173 -264.12625623 68.9112461 -248.10791016 60.15820312 C-246.24533301 59.13479961 -244.39329859 58.09225909 -242.54296875 57.046875 C-170.13104419 16.92105883 -82.49440678 -1.8467559 0 0 Z M-39.75 70.0625 C-40.74371863 71.01284203 -41.73853153 71.96204103 -42.734375 72.91015625 C-43.22702347 73.38267822 -43.71967194 73.8552002 -44.22724915 74.34204102 C-46.02818332 76.02635835 -47.87711578 77.63669183 -49.74682617 79.24414062 C-53.75897958 82.74470817 -57.5585949 86.41341055 -61.31640625 90.18359375 C-62.3066404 91.17239281 -62.3066404 91.17239281 -63.31687927 92.1811676 C-64.70035506 93.56396835 -66.08259083 94.94801076 -67.46362305 96.33325195 C-69.55731669 98.43230343 -71.65629874 100.5259594 -73.75585938 102.61914062 C-75.10969571 103.97363786 -76.46322175 105.32844531 -77.81640625 106.68359375 C-78.43326797 107.29843124 -79.0501297 107.91326874 -79.6856842 108.54673767 C-83.9863798 112.87024438 -88.02623499 117.37570693 -92 122 C-92.97333114 123.11773398 -93.94718204 124.23501587 -94.921875 125.3515625 C-101.32648039 132.74484323 -107.52714535 140.2628593 -113.48242188 148.02294922 C-114.53508503 149.3943241 -115.59132926 150.7629547 -116.65039062 152.12939453 C-141.36513373 184.07687531 -162.38634572 218.66573351 -180 255 C-180.42087891 255.86109375 -180.84175781 256.7221875 -181.27539062 257.609375 C-182.64912076 260.42365477 -184.01343181 263.24231828 -185.375 266.0625 C-185.80441895 266.94365479 -186.23383789 267.82480957 -186.67626953 268.73266602 C-187.07958496 269.57498779 -187.48290039 270.41730957 -187.8984375 271.28515625 C-188.25599121 272.02644775 -188.61354492 272.76773926 -188.98193359 273.53149414 C-190.25694248 276.6230085 -191.12601803 279.77501145 -192 283 C-148.85173942 295.53533577 -105.74199771 304.67842945 -61 309 C-59.92314941 309.10747559 -58.84629883 309.21495117 -57.73681641 309.32568359 C-48.39996061 310.162016 -39.49435781 310 -30 310 C-30 229.15 -30 148.3 -30 65 C-34.94908254 65 -36.42575093 66.8021788 -39.75 70.0625 Z M14 65 C14 145.85 14 226.7 14 310 C27.66464855 310.13623017 27.66464855 310.13623017 41.20703125 309.3359375 C42.34945282 309.22757317 42.34945282 309.22757317 43.51495361 309.11701965 C45.94878162 308.88115027 48.38060491 308.62998406 50.8125 308.375 C51.66528534 308.2876358 52.51807068 308.20027161 53.396698 308.11026001 C95.10149269 303.79945913 135.88969622 295.23648129 176 283 C173.63392701 275.29593534 170.46996 268.10948023 167.0625 260.8125 C166.77754669 260.20050751 166.49259338 259.58851501 166.19900513 258.95797729 C161.04648 247.91884659 155.45463342 237.17049862 149.44873047 226.57080078 C148.03833301 224.06802269 146.65888003 221.55039817 145.28515625 219.02734375 C132.75191387 196.25317278 117.80383044 174.61656133 102 154 C101.51772949 153.36755371 101.03545898 152.73510742 100.53857422 152.08349609 C91.63556523 140.44487429 82.12081681 129.32625675 72.25708008 118.49243164 C70.86855244 116.95911864 69.48827709 115.41822454 68.12207031 113.86499023 C61.80924881 106.71600767 55.12334273 99.9706534 48.37036133 93.23999023 C46.43389451 91.30890453 44.50286044 89.37250118 42.57226562 87.43554688 C36.55050826 81.41064476 30.51712091 75.49400739 24 70 C23.45239014 69.50032715 22.90478027 69.0006543 22.34057617 68.48583984 C19.21041253 65.68478781 18.38686222 65 14 65 Z M96 77 C99.73463543 82.33519347 103.85557456 87.08318553 108.3125 91.8125 C113.82262629 97.67118176 118.99269472 103.70241639 124 110 C124.90777121 111.11676658 125.81668852 112.23260221 126.7265625 113.34765625 C156.78629308 150.31674357 182.2396902 191.13731846 203 234 C203.44263184 234.90991699 203.88526367 235.81983398 204.34130859 236.75732422 C205.81623199 239.79398958 207.28437126 242.83383856 208.75 245.875 C209.21027588 246.82624756 209.67055176 247.77749512 210.14477539 248.75756836 C213.01451561 254.74966126 215.61644654 260.79837824 218 267 C226.91673638 264.74070521 235.11548673 261.01622851 243.4375 257.1875 C244.15931458 256.8570871 244.88112915 256.52667419 245.62481689 256.18624878 C272.44934015 243.88691558 298.03913999 229.72503998 323 214 C318.13891497 206.98127547 312.35326136 201.07941092 306.30566406 195.09985352 C304.63027932 193.4427218 302.963033 191.77773144 301.296875 190.11132812 C295.69886405 184.53175773 290.03848099 179.10646595 284 174 C283.03578125 173.154375 282.0715625 172.30875 281.078125 171.4375 C272.19391122 163.78038757 262.89096705 156.7340968 253.43994141 149.79296875 C251.91534441 148.67263252 250.39367494 147.54828852 248.87646484 146.41796875 C214.21986744 120.63175935 174.23248745 101.17437123 133.375 87.5625 C132.63798859 87.31683289 131.90097717 87.07116577 131.14163208 86.8180542 C122.82914036 84.06485298 114.47225969 81.51087322 106.0390625 79.15234375 C105.26444672 78.9352626 104.48983093 78.71818146 103.69174194 78.49452209 C99.90215056 77.3920324 99.90215056 77.3920324 96 77 Z M-303.375 177.5859375 C-305.43387923 179.47937107 -307.51912533 181.30790761 -309.640625 183.12890625 C-314.89834154 187.71521485 -319.81662132 192.63259064 -324.75 197.5625 C-325.68199219 198.48224609 -326.61398437 199.40199219 -327.57421875 200.34960938 C-328.47269531 201.24615234 -329.37117187 202.14269531 -330.296875 203.06640625 C-331.10479492 203.87021729 -331.91271484 204.67402832 -332.74511719 205.50219727 C-335.1841085 208.20394262 -337.05454597 210.93064816 -339 214 C-324.81140081 222.60280802 -310.61835692 231.14226251 -296 239 C-294.67307129 239.72171387 -294.67307129 239.72171387 -293.31933594 240.45800781 C-280.37174974 247.47810323 -267.23469077 253.84383306 -253.75 259.75 C-253.04864929 260.05844849 -252.34729858 260.36689697 -251.62469482 260.68469238 C-249.62246407 261.56223906 -247.61685519 262.43141342 -245.609375 263.296875 C-244.45405273 263.79541992 -243.29873047 264.29396484 -242.10839844 264.80761719 C-239.37789912 265.85503776 -236.87974829 266.54317517 -234 267 C-233.70867187 266.32646484 -233.41734375 265.65292969 -233.1171875 264.95898438 C-227.77693432 252.64113624 -222.4424585 240.36055972 -216.25683594 228.43994141 C-214.70718344 225.43154455 -213.18709315 222.4086788 -211.6640625 219.38671875 C-191.53311523 179.60406072 -166.63500468 142.19179755 -138 108 C-137.37061523 107.24323975 -137.37061523 107.24323975 -136.72851562 106.47119141 C-130.81907499 99.36907899 -124.75423602 92.47171678 -118.41015625 85.75390625 C-115.95246157 82.94568137 -113.99552902 80.14376846 -112 77 C-175.9485941 77 -259.08970799 136.35982685 -303.375 177.5859375 Z M-368 249 C-369.81740747 251.22931124 -371.48073723 253.45795863 -373.125 255.8125 C-373.64852051 256.56096191 -374.17204102 257.30942383 -374.71142578 258.08056641 C-421.0373452 325.58250947 -446.21265922 404.61520681 -451 486 C-395.56 486 -340.12 486 -283 486 C-282.22364923 481.34189539 -281.71731622 476.84163888 -281.421875 472.1484375 C-281.31565693 470.57773984 -281.20851952 469.00710415 -281.10058594 467.43652344 C-281.04414917 466.61277222 -280.9877124 465.789021 -280.92956543 464.94030762 C-277.48434272 415.72116737 -268.53098951 366.89285527 -253.43774414 319.87866211 C-252.95809204 318.3821814 -252.95809204 318.3821814 -252.46875 316.85546875 C-252.18451172 315.98559326 -251.90027344 315.11571777 -251.60742188 314.21948242 C-250.86801492 311.90125133 -250.86801492 311.90125133 -251 309 C-251.82798096 308.64397705 -252.65596191 308.2879541 -253.5090332 307.92114258 C-291.74392645 291.44063059 -329.96262906 273.96049321 -364.24682617 250.06201172 C-365.94347777 248.82729436 -365.94347777 248.82729436 -368 249 Z M346.31640625 251.23828125 C345.56415771 251.72280762 344.81190918 252.20733398 344.03686523 252.70654297 C343.22032471 253.23650879 342.40378418 253.76647461 341.5625 254.3125 C331.86903913 260.50877326 322.03786192 266.3798333 312 272 C311.05866211 272.52819336 310.11732422 273.05638672 309.14746094 273.60058594 C285.20746238 286.95428751 260.42431783 298.7450883 235 309 C236.32761542 316.55068204 238.35784583 323.74652157 240.625 331.0625 C248.64269503 357.64438454 254.54163953 384.60657413 259 412 C259.19577637 413.19979492 259.39155273 414.39958984 259.59326172 415.63574219 C262.3131672 432.72482516 263.84506585 449.82974903 265.04956055 467.08056641 C265.10672241 467.8936174 265.16388428 468.7066684 265.22277832 469.5443573 C265.32867683 471.06751569 265.43174282 472.59087487 265.53137207 474.11445618 C265.80946603 478.16291029 266.32923953 481.97543719 267 486 C322.44 486 377.88 486 435 486 C433.66314797 465.61485275 433.66314797 465.61485275 431.3125 445.375 C431.14588867 444.24715088 430.97927734 443.11930176 430.80761719 441.95727539 C420.53107499 375.3998996 396.17947448 301.14315657 352 249 C349.42997848 249 348.46498645 249.83932086 346.31640625 251.23828125 Z M-208 325 C-211.78370077 333.60526897 -214.3216567 342.52267378 -216.8125 351.5625 C-217.02965668 352.34700531 -217.24681335 353.13151062 -217.47055054 353.93978882 C-226.14918687 385.43633251 -232.28807323 417.56897682 -235.75 450.0625 C-235.86569336 451.14176758 -235.98138672 452.22103516 -236.10058594 453.33300781 C-237.17304212 464.23033616 -237.50070544 475.01551967 -238 486 C-169.36 486 -100.72 486 -30 486 C-30 442.77 -30 399.54 -30 355 C-44.19 354.01 -58.38 353.02 -73 352 C-115.83195913 347.15109897 -158.30019286 339.76073119 -199.45922852 326.67553711 C-202.4297312 325.7317183 -204.86012724 325 -208 325 Z M182.98046875 326.72265625 C181.12917358 327.27796021 181.12917358 327.27796021 179.24047852 327.84448242 C178.58137482 328.04302826 177.92227112 328.2415741 177.24319458 328.44613647 C123.49265995 344.56228006 70.08433352 351.08713952 14 355 C14 398.23 14 441.46 14 486 C82.64 486 151.28 486 222 486 C221.10856409 466.3507943 221.10856409 466.3507943 219.3125 446.8125 C219.22730103 446.06019104 219.14210205 445.30788208 219.05432129 444.53277588 C212.46649103 382.86929017 212.46649103 382.86929017 192 325 C188.63477856 325 186.20121794 325.74205633 182.98046875 326.72265625 Z M-451 530 C-449.66314797 550.38514725 -449.66314797 550.38514725 -447.3125 570.625 C-447.14588867 571.75284912 -446.97927734 572.88069824 -446.80761719 574.04272461 C-443.08635092 598.14399453 -437.60811886 621.82423703 -430 645 C-429.63036133 646.12680176 -429.26072266 647.25360352 -428.87988281 648.41455078 C-414.8804807 690.46609946 -394.7947851 731.5742024 -368 767 C-364.64225449 765.73974188 -361.68073335 764.30594526 -358.65625 762.3828125 C-357.42237549 761.60562866 -357.42237549 761.60562866 -356.16357422 760.81274414 C-355.28459473 760.25578857 -354.40561523 759.69883301 -353.5 759.125 C-322.45940781 739.72395707 -289.39941988 721.22592393 -254.77758789 708.94384766 C-252.64057811 708.07105903 -252.64057811 708.07105903 -252 705 C-252.47481247 702.68812894 -252.47481247 702.68812894 -253.37109375 700.14453125 C-253.85557983 698.64841309 -253.85557983 698.64841309 -254.34985352 697.12207031 C-254.70877686 696.02991211 -255.0677002 694.93775391 -255.4375 693.8125 C-264.24189054 665.98541366 -270.19846282 637.75875025 -275 609 C-275.20608887 607.77909668 -275.41217773 606.55819336 -275.62451172 605.30029297 C-279.72988183 580.34896494 -280.98145216 555.23184798 -283 530 C-338.44 530 -393.88 530 -451 530 Z M-238 530 C-238.02204597 539.84604412 -238.02204597 539.84604412 -237.51953125 549.59765625 C-237.46684082 550.26170471 -237.41415039 550.92575317 -237.35986328 551.60992432 C-237.18518891 553.76152138 -237.00060114 555.91203674 -236.8125 558.0625 C-236.74686859 558.81743744 -236.68123718 559.57237488 -236.61361694 560.35018921 C-232.67747284 604.92436163 -224.42927852 649.5638082 -210 692 C-204.27041497 690.45380772 -198.55117214 688.8782326 -192.84765625 687.23828125 C-155.76903224 676.65538389 -118.06519197 669.1123053 -79.75 664.75 C-78.4403125 664.59885742 -77.130625 664.44771484 -75.78125 664.29199219 C-60.53762671 662.66242532 -45.3368172 661.95855107 -30 661 C-30 617.77 -30 574.54 -30 530 C-98.64 530 -167.28 530 -238 530 Z M14 530 C14 573.23 14 616.46 14 661 C35.285 662.485 35.285 662.485 57 664 C89.93882633 667.72892374 121.98354395 673.06764724 154.125 681.0625 C154.9385495 681.26410736 155.752099 681.46571472 156.59030151 681.6734314 C166.51911773 684.15093198 176.30138964 686.93708763 186.02932739 690.11769104 C189.93255903 691.49478043 189.93255903 691.49478043 194 692 C210.15012106 639.61678326 222 585.06552788 222 530 C153.36 530 84.72 530 14 530 Z M267 530 C265.68 546.5 264.36 563 263 580 C258.07845298 620.30347961 250.97435891 661.27635479 237.58764648 699.76367188 C236.14582384 703.82835263 236.14582384 703.82835263 237 708 C239.49662239 709.41655608 239.49662239 709.41655608 242.640625 710.64453125 C243.84195068 711.14919922 245.04327637 711.65386719 246.28100586 712.17382812 C246.9268161 712.4401001 247.57262634 712.70637207 248.23800659 712.98071289 C251.67734051 714.40258317 255.09829854 715.86725042 258.51953125 717.33203125 C259.22545914 717.63384308 259.93138702 717.93565491 260.65870667 718.24661255 C280.76750806 726.88803478 300.12965024 736.91997998 319 748 C320.99866819 749.16411355 322.99736654 750.32817531 324.99609375 751.4921875 C326.95643533 752.6394192 328.91609399 753.78781878 330.875 754.9375 C331.76050537 755.45707275 332.64601074 755.97664551 333.55834961 756.51196289 C338.56478938 759.47684903 343.38071493 762.58336959 348.09423828 765.99829102 C348.72313965 766.32885498 349.35204102 766.65941895 350 767 C354.35521927 765.54826024 355.8497494 762.1991679 358.25 758.5 C358.77158691 757.70392334 359.29317383 756.90784668 359.83056641 756.08764648 C398.2346059 696.91292386 423.36531959 632.53304484 432.25 562.4375 C432.41330811 561.15464111 432.57661621 559.87178223 432.74487305 558.55004883 C433.89465979 549.00565497 434.43291519 539.64044178 435 530 C379.56 530 324.12 530 267 530 Z M-63.375 707.25 C-64.39430603 707.3503656 -64.39430603 707.3503656 -65.4342041 707.45275879 C-98.31993103 710.70080229 -130.80727614 716.40719028 -162.8125 724.625 C-163.88022141 724.89780289 -163.88022141 724.89780289 -164.96951294 725.17611694 C-174.79930697 727.70469374 -184.40890513 730.67605408 -194 734 C-190.63497543 743.17975664 -186.7954986 751.96539269 -182.5 760.75 C-182.19731201 761.3715094 -181.89462402 761.9930188 -181.58276367 762.63336182 C-150.89511524 825.62306105 -110.97436175 881.00551988 -61.5625 930.5625 C-61.04812378 931.07955505 -60.53374756 931.59661011 -60.00378418 932.1293335 C-54.18286799 937.97326553 -48.28304503 943.65148208 -42 949 C-41.67 949.33 -41.34 949.66 -41 950 C-37.37 950.33 -33.74 950.66 -30 951 C-30 870.15 -30 789.3 -30 706 C-41.34999645 706 -52.16290808 706.11824295 -63.375 707.25 Z M14 706 C14 786.85 14 867.7 14 951 C25.33702432 950.04896816 25.33702432 950.04896816 32 943 C33.09986335 942.00995481 34.22132663 941.04356045 35.359375 940.09765625 C41.10164799 935.14276321 46.40412692 929.74515829 51.75463867 924.37573242 C53.55862085 922.56639067 55.36788665 920.76245681 57.17773438 918.95898438 C62.99970296 913.14037156 68.67486972 907.28275715 74 901 C75.47534536 899.37152983 76.9539343 897.74598483 78.4375 896.125 C82.04147828 892.12664699 85.46071694 888.03027966 88.7890625 883.80078125 C90.41431866 881.74193202 92.05307902 879.70020098 93.7109375 877.66796875 C123.78765351 840.6956399 147.7824488 799.55901329 168.5 756.75 C168.99218018 755.73945557 169.48436035 754.72891113 169.99145508 753.68774414 C173.07493338 747.25101644 175.69057206 740.75292612 178 734 C134.4289931 719.23016715 88.95373801 710.83832682 43.1875 706.75 C42.31246826 706.66967529 41.43743652 706.58935059 40.53588867 706.5065918 C31.63669816 705.79369385 23.01864177 706 14 706 Z M-243.7421875 751.9140625 C-244.7110791 752.33800293 -245.6799707 752.76194336 -246.67822266 753.19873047 C-247.73315918 753.66939941 -248.7880957 754.14006836 -249.875 754.625 C-251.52894775 755.36000732 -251.52894775 755.36000732 -253.21630859 756.10986328 C-283.02280447 769.4624722 -311.20008892 784.82569453 -339 802 C-334.23811451 808.84624022 -328.64203073 814.63324582 -322.73291016 820.47290039 C-321.12995144 822.05760494 -319.53513871 823.6501629 -317.94140625 825.24414062 C-312.4643377 830.70236605 -306.89386903 835.99029403 -301 841 C-299.95140941 841.92514245 -298.90446357 842.85215332 -297.859375 843.78125 C-252.83017177 883.34602443 -198.77887324 912.58593138 -141.9375 931.0625 C-140.23557495 931.61768311 -140.23557495 931.61768311 -138.49926758 932.18408203 C-131.72373346 934.32658721 -125.02496185 935.92336066 -118 937 C-119.2065625 935.6078125 -119.2065625 935.6078125 -120.4375 934.1875 C-123.0496961 931.1429824 -125.59606877 928.05144811 -128.125 924.9375 C-131.1235992 921.25078005 -134.17871423 917.6285506 -137.30200195 914.0480957 C-144.30282919 906.00399019 -150.70949135 897.60627826 -157 889 C-157.51675293 888.29891113 -158.03350586 887.59782227 -158.56591797 886.87548828 C-172.06439853 868.55760561 -184.56663054 849.67466008 -196 830 C-196.39493652 829.32195312 -196.78987305 828.64390625 -197.19677734 827.9453125 C-211.73970608 802.85261953 -224.69725427 776.70472672 -236 750 C-239.24087003 750 -240.80179876 750.62369217 -243.7421875 751.9140625 Z M220 750 C219.6189209 750.85303711 219.2378418 751.70607422 218.84521484 752.58496094 C206.64516315 779.82821948 194.05692137 806.6342728 178.64648438 832.24951172 C177.08136676 834.86407504 175.54412272 837.49280888 174.015625 840.12890625 C160.09966714 863.98449888 143.75086014 886.83937011 126 908 C124.49894691 909.85331423 122.998966 911.70749732 121.5 913.5625 C118.53159427 917.19918555 115.47726251 920.72057424 112.3125 924.1875 C108.58642563 928.27310786 105.22804325 932.51566396 102 937 C111.78210097 935.67469164 120.87790833 932.65016702 130.1875 929.5 C131.37927353 929.09950439 131.37927353 929.09950439 132.59512329 928.69091797 C175.88395216 914.10694904 218.21218337 893.56108746 254.30517578 865.31396484 C256.89587799 863.30544291 259.54590218 861.37833585 262.1875 859.4375 C268.69248241 854.56097577 274.85083795 849.3124861 281 844 C281.71800781 843.38382813 282.43601562 842.76765625 283.17578125 842.1328125 C285.13306384 840.43893233 287.06981095 838.72469363 289 837 C289.84304688 836.24976563 290.68609375 835.49953125 291.5546875 834.7265625 C297.83740288 829.05679496 303.92477739 823.20529882 309.9375 817.25 C310.65929443 816.54117676 311.38108887 815.83235352 312.12475586 815.10205078 C316.25040156 810.98363375 319.75789143 806.84730127 323 802 C308.81140081 793.39719198 294.61835692 784.85773749 280 777 C279.11538086 776.51885742 278.23076172 776.03771484 277.31933594 775.54199219 C264.33106313 768.49983676 251.14996652 762.1171595 237.625 756.1875 C236.91510925 755.87478149 236.20521851 755.56206299 235.47381592 755.23986816 C233.45697107 754.35444123 231.43651397 753.47800234 229.4140625 752.60546875 C228.2482666 752.10168701 227.0824707 751.59790527 225.88134766 751.07885742 C223.04453116 749.82467309 223.04453116 749.82467309 220 750 Z " fill="#000000" transform="translate(520,4)"/>
</svg>
